<svg id="Layer_1" data-name="Layer 1" xmlns="http://www.w3.org/2000/svg" viewBox="0 0 129 72"><defs><style>.cls-1{fill:#466382;}</style></defs><title>arrow</title><path class="cls-1" d="M64.3,71.78a7.23,7.23,0,0,1-5.13-2.13l-57-57A7.26,7.26,0,0,1,12.39,2.34L64.32,54.27,116.63,2.32a7.26,7.26,0,0,1,10.23,10.31l-57.44,57A7.23,7.23,0,0,1,64.3,71.78ZM7.25,1.4A6.08,6.08,0,0,0,3,11.77L60,68.82A6,6,0,0,0,64.3,70.6a6.09,6.09,0,0,0,4.29-1.76l57.44-57a6.08,6.08,0,0,0-8.57-8.63L64.32,55.93,11.55,3.18A6,6,0,0,0,7.25,1.4Z"/></svg>