<svg id="Layer_1" data-name="Layer 1" xmlns="http://www.w3.org/2000/svg" viewBox="0 0 124 117"><defs><style>.cls-1{fill:#fff;}</style></defs><title>book-1-icon</title><path class="cls-1" d="M28.35,60h-13a1.43,1.43,0,0,0-1.43,1.43V73.83a1.43,1.43,0,0,0,1.43,1.42h13a1.43,1.43,0,0,0,1.42-1.42V61.46A1.43,1.43,0,0,0,28.35,60ZM26.92,72.41H16.73V62.88H26.92Z"/><path class="cls-1" d="M28.35,85.54h-13A1.43,1.43,0,0,0,13.88,87V99.34a1.43,1.43,0,0,0,1.43,1.42h13a1.43,1.43,0,0,0,1.42-1.42V87A1.43,1.43,0,0,0,28.35,85.54ZM26.92,97.92H16.73V88.39H26.92Z"/><path class="cls-1" d="M54.93,60h-13a1.43,1.43,0,0,0-1.42,1.43V73.83a1.43,1.43,0,0,0,1.42,1.42h13a1.43,1.43,0,0,0,1.42-1.42V61.46A1.43,1.43,0,0,0,54.93,60ZM53.5,72.41H43.3V62.88H53.5Z"/><path class="cls-1" d="M54.93,34.81h-13a1.43,1.43,0,0,0-1.42,1.43V48.61A1.43,1.43,0,0,0,41.88,50h13a1.43,1.43,0,0,0,1.42-1.42V36.24A1.43,1.43,0,0,0,54.93,34.81ZM53.5,47.19H43.3V37.66H53.5Z"/><path class="cls-1" d="M28.35,34.81h-13a1.43,1.43,0,0,0-1.42,1.43V48.61A1.43,1.43,0,0,0,15.3,50H28.35a1.43,1.43,0,0,0,1.42-1.42V36.24A1.43,1.43,0,0,0,28.35,34.81ZM26.93,47.19H16.73V37.66h10.2Z"/><path class="cls-1" d="M54.93,85.54h-13A1.43,1.43,0,0,0,40.46,87V99.34a1.43,1.43,0,0,0,1.42,1.42h13a1.43,1.43,0,0,0,1.42-1.42V87A1.43,1.43,0,0,0,54.93,85.54ZM53.5,97.92H43.3V88.39H53.5Z"/><path class="cls-1" d="M81.76,60h-13a1.43,1.43,0,0,0-1.43,1.43V73.83a1.43,1.43,0,0,0,1.43,1.42h13a1.43,1.43,0,0,0,1.42-1.42V61.46A1.43,1.43,0,0,0,81.76,60ZM80.34,72.41H70.14V62.88h10.2Z"/><path class="cls-1" d="M81.76,34.81h-13a1.43,1.43,0,0,0-1.43,1.43V48.61A1.43,1.43,0,0,0,68.72,50h13a1.43,1.43,0,0,0,1.42-1.42V36.24A1.43,1.43,0,0,0,81.76,34.81ZM80.34,47.19H70.14V37.66h10.2Z"/><path class="cls-1" d="M81.76,85.54h-13A1.43,1.43,0,0,0,67.29,87V99.34a1.43,1.43,0,0,0,1.43,1.42h13a1.43,1.43,0,0,0,1.42-1.42V87A1.43,1.43,0,0,0,81.76,85.54ZM80.34,97.92H70.14V88.39h10.2Z"/><path class="cls-1" d="M108.59,60h-13a1.42,1.42,0,0,0-1.42,1.43V73.83a1.42,1.42,0,0,0,1.42,1.42h13A1.43,1.43,0,0,0,110,73.83V61.46A1.43,1.43,0,0,0,108.59,60Zm-1.42,12.38H97V62.88h10.2Z"/><path class="cls-1" d="M108.59,34.81h-13a1.42,1.42,0,0,0-1.42,1.43V48.61A1.42,1.42,0,0,0,95.55,50h13A1.43,1.43,0,0,0,110,48.61V36.24A1.43,1.43,0,0,0,108.59,34.81Zm-1.42,12.38H97V37.66h10.2Z"/><path class="cls-1" d="M108.59,85.54h-13A1.42,1.42,0,0,0,94.13,87V99.34a1.42,1.42,0,0,0,1.42,1.42h13A1.43,1.43,0,0,0,110,99.34V87A1.43,1.43,0,0,0,108.59,85.54Zm-1.42,12.38H97V88.39h10.2Z"/><path class="cls-1" d="M115,5.79h-6.15V2.16A1.42,1.42,0,0,0,107.44.74h0A1.43,1.43,0,0,0,106,2.16V5.79H86.13V2.16A1.42,1.42,0,0,0,84.72.74h0a1.43,1.43,0,0,0-1.42,1.42V5.79H63.41V2.16A1.42,1.42,0,0,0,62,.74h0a1.43,1.43,0,0,0-1.42,1.42V5.79H40.7V2.16A1.43,1.43,0,0,0,39.28.74h0a1.43,1.43,0,0,0-1.42,1.42V5.79H18V2.16A1.42,1.42,0,0,0,16.56.74h0a1.43,1.43,0,0,0-1.43,1.42V5.79H9a9,9,0,0,0-9,9v92.49a9,9,0,0,0,9,9H115a9,9,0,0,0,9-9V14.78A9,9,0,0,0,115,5.79Zm-112.16,9A6.16,6.16,0,0,1,9,8.63h6.14v3.63a1.43,1.43,0,0,0,1.43,1.42h0A1.42,1.42,0,0,0,18,12.26V8.63H37.85v3.63a1.43,1.43,0,0,0,1.42,1.42h0a1.43,1.43,0,0,0,1.42-1.42V8.63H60.57v3.63A1.43,1.43,0,0,0,62,13.68h0a1.42,1.42,0,0,0,1.41-1.42V8.63H83.29v3.63a1.43,1.43,0,0,0,1.42,1.42h0a1.42,1.42,0,0,0,1.41-1.42V8.63H106v3.63a1.43,1.43,0,0,0,1.42,1.42h0a1.42,1.42,0,0,0,1.41-1.42V8.63H115a6.16,6.16,0,0,1,6.16,6.15v6.15H2.84Zm118.32,92.49a6.16,6.16,0,0,1-6.16,6.15H9a6.16,6.16,0,0,1-6.15-6.15V23.78H121.16v83.49Z"/></svg>