<svg id="Layer_1" data-name="Layer 1" xmlns="http://www.w3.org/2000/svg" viewBox="0 0 100 100"><defs><style>.cls-1{fill:#476381;}</style></defs><title>Artboard 2</title><path class="cls-1" d="M6.51,30.91l.34.07A65.31,65.31,0,0,0,20.32,32.4a53.2,53.2,0,0,0,11.89-1.29l.33-.07.11-.32a40.55,40.55,0,0,0,2.09-9.15,42.24,42.24,0,0,0,2.13,9l.12.33.33.07A65.31,65.31,0,0,0,50.79,32.4a53.2,53.2,0,0,0,11.89-1.29L63,31l.11-.32a40,40,0,0,0,2.09-9.15,42.24,42.24,0,0,0,2.13,9l.12.33.33.07A65.4,65.4,0,0,0,81.26,32.4a53.22,53.22,0,0,0,11.9-1.29l.32-.07.12-.32A35.08,35.08,0,0,0,95.82,18c-.32-9.57-9-10.14-9-10.14a7.26,7.26,0,0,0-4.89,1.67,2.74,2.74,0,0,1-1.43.68,4.06,4.06,0,0,1-1.56-.68,7.39,7.39,0,0,0-5.19-1.62,9.71,9.71,0,0,0-8.55,8.35c-1.23-7.9-8.8-8.4-8.85-8.4a7.21,7.21,0,0,0-4.89,1.67,2.59,2.59,0,0,1-1.43.68,4.06,4.06,0,0,1-1.56-.68,7.39,7.39,0,0,0-5.19-1.62,9.71,9.71,0,0,0-8.55,8.35c-1.23-7.9-8.81-8.4-8.85-8.4A7.27,7.27,0,0,0,21,9.49a2.71,2.71,0,0,1-1.42.68A4.06,4.06,0,0,1,18,9.49a7.4,7.4,0,0,0-5.19-1.62C4.42,9,4.11,17.22,4.11,17.29A36.54,36.54,0,0,0,6.4,30.58ZM66.28,17.34c0-.3.3-7.24,7.6-8.25a6.27,6.27,0,0,1,4.29,1.37l.37.23a7.52,7.52,0,0,0-1,.38,5.65,5.65,0,0,0-2.1,1.71A22.44,22.44,0,0,1,77.9,12a10.33,10.33,0,0,1,2.38-.33,7.5,7.5,0,0,1,2.34.31,9.12,9.12,0,0,1,1.18.4c.4.14.76.36,1.2.51a5.41,5.41,0,0,0-2-1.8,3.11,3.11,0,0,0-.7-.31,4.49,4.49,0,0,0,.42-.31A6.1,6.1,0,0,1,86.7,9c.31,0,7.62.53,7.89,9v0a34,34,0,0,1-2,12c-10.17,2.27-20,.73-24.16-.14A34.69,34.69,0,0,1,66.28,17.34Zm-30.47,0c0-.3.27-7.24,7.6-8.25a6.18,6.18,0,0,1,4.29,1.37l.39.25a7.17,7.17,0,0,0-.91.36,5.62,5.62,0,0,0-2.09,1.71A21.07,21.07,0,0,1,47.52,12a10.25,10.25,0,0,1,2.37-.33,7.56,7.56,0,0,1,2.35.31,9.53,9.53,0,0,1,1.17.4c.4.14.77.36,1.21.51a5.44,5.44,0,0,0-2-1.8,3.35,3.35,0,0,0-.75-.33l.39-.29a6.16,6.16,0,0,1,4-1.39c.31,0,7.62.53,7.89,9v0a33.53,33.53,0,0,1-2,12c-10.17,2.27-20,.73-24.16-.14A34.69,34.69,0,0,1,35.81,17.34Zm-30.48,0c0-.3.3-7.24,7.61-8.25a6.3,6.3,0,0,1,4.29,1.37s.2.14.42.27a5.9,5.9,0,0,0-2.95,2A21.73,21.73,0,0,1,17.13,12a10.33,10.33,0,0,1,2.38-.33,7.5,7.5,0,0,1,2.34.31,9,9,0,0,1,1.17.4c.41.14.77.36,1.21.51a5.41,5.41,0,0,0-2-1.8,3.68,3.68,0,0,0-.82-.35,3.44,3.44,0,0,0,.36-.27,6.13,6.13,0,0,1,4-1.39c.31,0,7.62.53,7.9,9v0a33.7,33.7,0,0,1-2,12c-10.16,2.27-20,.73-24.16-.14A35.13,35.13,0,0,1,5.33,17.34Z"/><path class="cls-1" d="M100,75.9l0-1.23a45.65,45.65,0,0,0-6.14.72A2.74,2.74,0,0,0,93.44,74,3.87,3.87,0,0,0,91,72.43c-3.46-.29-3.89-2.55-4-3.2h0a6.87,6.87,0,0,0-13.72.09h0c-.13.73-.74,2.58-3.75,3.12A3.69,3.69,0,0,0,67.26,74a2.86,2.86,0,0,0-.35,1,6.31,6.31,0,0,0-2.71.52,35.56,35.56,0,0,1-24.41-.17,9.57,9.57,0,0,0-6.7.06A2.85,2.85,0,0,0,32.71,74a3.87,3.87,0,0,0-2.49-1.58c-3.45-.29-3.89-2.55-3.95-3.2h0a6.87,6.87,0,0,0-13.73.09h0c-.12.73-.74,2.58-3.75,3.12A3.68,3.68,0,0,0,6.54,74a2.51,2.51,0,0,0-.35,1H0v1.23H6l.14.07.14.39c1,2.85,1.95,7,2,7.07l0,.06a21.8,21.8,0,0,0,4,7.07c1.47,1.74,2.69,1.42,3.1,1.23,1.52-.31,1.76-2.38,1.67-3.53,0-.88-.18-3.43-.2-3.78a2.15,2.15,0,0,1,.68-1.61,3.21,3.21,0,0,1,2.12-.63,2.9,2.9,0,0,1,2.16.82,2,2,0,0,1,.4,1.43,43.15,43.15,0,0,0-.17,4.54,2.89,2.89,0,0,0,1.81,2.84,1.7,1.7,0,0,0,.54.09A3.29,3.29,0,0,0,26.61,91c2.24-2,3.74-5.85,3.9-6.27a31.65,31.65,0,0,0,1.77-5.62c.24-.92.46-1.78.65-2.4a8.73,8.73,0,0,1,6.38-.31A32.77,32.77,0,0,0,52,78.78a38.26,38.26,0,0,0,12.64-2.17l.11,0A5.19,5.19,0,0,1,67,76.17a.29.29,0,0,0,0,.09h0a31.64,31.64,0,0,0,1.86,7.49,21.8,21.8,0,0,0,4,7.07c1.47,1.75,2.69,1.42,3.1,1.23,1.52-.31,1.76-2.38,1.67-3.53,0-.88-.18-3.43-.2-3.78a2.15,2.15,0,0,1,.68-1.61,3.21,3.21,0,0,1,2.12-.63,2.9,2.9,0,0,1,2.16.82,2,2,0,0,1,.4,1.43,43.15,43.15,0,0,0-.17,4.54,2.89,2.89,0,0,0,1.81,2.84,1.7,1.7,0,0,0,.54.09A3.29,3.29,0,0,0,87.12,91c2.24-2,3.74-5.85,3.9-6.27a31.79,31.79,0,0,0,1.77-5.61c.23-.91.45-1.76.65-2.39L94,76.6A47.12,47.12,0,0,1,100,75.9ZM7.58,74.6A2.47,2.47,0,0,1,9,73.65c4.07-.73,4.68-3.59,4.77-4.41a5.64,5.64,0,0,1,11.25,0c0,.79.52,4.07,5,4.45a2.74,2.74,0,0,1,1.6,1,1.57,1.57,0,0,1,.19,1.08,61,61,0,0,1-14,1.51c-1.41,0-2.74-.15-4-.27a25.44,25.44,0,0,1-6.48-1.55A1.59,1.59,0,0,1,7.58,74.6Zm23.51,4.24a30.83,30.83,0,0,1-1.69,5.4l0,.06s-1.49,4-3.6,5.84l-.06.06c-.26.3-1,.91-1.39.77a1.66,1.66,0,0,1-1-1.69,43,43,0,0,1,.15-4.39A3.26,3.26,0,0,0,23,82.81l.89.27c.48.15.94.37,1.46.52a9.2,9.2,0,0,0-1.19-1.06,8,8,0,0,0-1.4-.78,8,8,0,0,0-6.35,0,6.76,6.76,0,0,0-2.58,1.86,18.82,18.82,0,0,1,2.46-.84,3.64,3.64,0,0,0-.61,2v.07s.22,2.84.21,3.77c0,.68-.06,2.2-.73,2.3h-.11l-.12.08c-.21.11-.83.07-1.67-.93a20.92,20.92,0,0,1-3.8-6.63c-.09-.38-.81-3.47-1.65-6.12,1.15.24,2.64.52,4.38.74a40.67,40.67,0,0,0,7.13.5,52.62,52.62,0,0,0,12.2-1.32C31.39,77.67,31.25,78.24,31.09,78.84Zm38.67-5.19c4.07-.73,4.68-3.59,4.77-4.41a5.63,5.63,0,0,1,11.24,0c0,.8.53,4.07,5,4.45a2.74,2.74,0,0,1,1.6,1,1.67,1.67,0,0,1,.19,1.08c-10.45,2.74-21.12-.31-21.29-.35A23.41,23.41,0,0,0,68.15,75a1.73,1.73,0,0,1,.16-.37A2.47,2.47,0,0,1,69.76,73.65ZM91.6,78.84a31.41,31.41,0,0,1-1.69,5.4l0,.06s-1.49,4-3.6,5.84l-.06.06c-.26.3-1,.91-1.39.77a1.66,1.66,0,0,1-1-1.69A39.61,39.61,0,0,1,84,84.89a3.27,3.27,0,0,0-.46-2.06l.8.25c.49.15.94.37,1.46.52a8.5,8.5,0,0,0-1.18-1.06,8.33,8.33,0,0,0-1.4-.78,8,8,0,0,0-6.36,0,6.73,6.73,0,0,0-2.57,1.86,18.42,18.42,0,0,1,2.53-.86,3.61,3.61,0,0,0-.62,2v.07s.22,2.84.21,3.77c0,.68-.06,2.2-.73,2.3h-.12l-.11.08c-.21.11-.83.07-1.67-.93A21,21,0,0,1,70,83.32a31,31,0,0,1-1.78-7.07h0a.09.09,0,0,0,0,0,22.62,22.62,0,0,1,2.8.37c.46.13,10.61,3,21,.56Q91.84,77.9,91.6,78.84Z"/><path class="cls-1" d="M55.15,60.77a.51.51,0,0,0,0-.13.47.47,0,0,0-.05-.1l-.06-.1-.09-.08,0,0,0,0-.12,0-.12,0H52V40.35a.62.62,0,0,0-.62-.62h-3.3a.61.61,0,0,0-.61.62V60.21H44.92l-.12,0-.11,0,0,0,0,0-.09.09-.06.09a.54.54,0,0,0,0,.11.5.5,0,0,0,0,.12s0,0,0,.07,0,0,0,0l0,.12a.56.56,0,0,0,0,.12s0,0,0,0l4.76,7.54a.46.46,0,0,0,.13.18.6.6,0,0,0,.78,0,.51.51,0,0,0,.19-.22l4.76-7.54,0,0a.36.36,0,0,0,0-.11l0-.12s0,0,0-.05A.14.14,0,0,0,55.15,60.77Zm-5.39,6.5-3.68-5.83h2a.61.61,0,0,0,.61-.61V41H50.8V60.83a.24.24,0,0,0,0,.08.33.33,0,0,0,0,.15s0,.06,0,.09a1,1,0,0,0,.08.11.41.41,0,0,0,.11.07s0,.05.08.06a.61.61,0,0,0,.13,0l.11,0h2Z"/></svg>