<svg id="Layer_1" data-name="Layer 1" xmlns="http://www.w3.org/2000/svg" viewBox="0 0 100 100"><defs><style>.cls-1{fill:#54b45d;}</style></defs><title>Artboard 3</title><path class="cls-1" d="M54.15,36.72h0a.61.61,0,0,0-.46.18A.63.63,0,0,0,54.09,38h.06c1,.06,8.64.88,10.71,10.87a.62.62,0,0,0,1.22,0C68.14,38.86,75.84,38,76.78,38h0a.61.61,0,0,0,.64-.56.31.31,0,0,0,0-.1.63.63,0,0,0-.63-.6h-.06c-.94-.06-8.64-.88-10.7-10.87a.62.62,0,0,0-1.22,0C62.79,35.84,55.09,36.66,54.15,36.72Zm11.32-8.33a13.51,13.51,0,0,0,8.49,9,13.49,13.49,0,0,0-8.49,9,13.51,13.51,0,0,0-8.49-9A13.53,13.53,0,0,0,65.47,28.39Z"/><path class="cls-1" d="M37.26,32.62h0c.45,0,4.08.48,5.05,5.18a.62.62,0,0,0,1.22,0c1-4.71,4.56-5.14,5-5.18h0a.6.6,0,0,0,.64-.6V32a.62.62,0,0,0-.62-.6h0c-.45,0-4.08-.48-5-5.18a.62.62,0,0,0-1.22,0c-1,4.71-4.57,5.14-5,5.18h0a.59.59,0,0,0-.45.18.62.62,0,0,0-.19.45.64.64,0,0,0,.19.45A.58.58,0,0,0,37.26,32.62Zm5.66-4.22A7,7,0,0,0,46.34,32a6.93,6.93,0,0,0-3.42,3.59A6.93,6.93,0,0,0,39.5,32,7,7,0,0,0,42.92,28.4Z"/><path class="cls-1" d="M49.71,18.19h0c.45,0,4.08.48,5.05,5.18a.62.62,0,0,0,1.22,0c1-4.71,4.56-5.14,5-5.18h0a.62.62,0,0,0,.62-.6v-.05a.61.61,0,0,0-.64-.6h0c-.45,0-4.08-.48-5-5.18a.62.62,0,0,0-1.22,0c-1,4.71-4.57,5.14-5,5.18h0a.6.6,0,0,0-.45.18.62.62,0,0,0-.19.45.64.64,0,0,0,.19.45A.61.61,0,0,0,49.71,18.19ZM55.39,14a6.93,6.93,0,0,0,3.42,3.59,7,7,0,0,0-3.42,3.6A7,7,0,0,0,52,17.56,6.93,6.93,0,0,0,55.39,14Z"/><path class="cls-1" d="M100,76.09l-.1-1.25c-2.16.18-4,.5-4.57.61a34.5,34.5,0,0,0,1.94-12C97,53.68,88.13,53.1,88.08,53.1a7.42,7.42,0,0,0-5,1.71,2.94,2.94,0,0,1-1.45.69,3.88,3.88,0,0,1-1.59-.7,7.48,7.48,0,0,0-5.29-1.64A9.89,9.89,0,0,0,66,61.67c-1.25-8.06-9-8.57-9-8.57a7.42,7.42,0,0,0-5,1.71,2.94,2.94,0,0,1-1.45.69A3.88,3.88,0,0,1,49,54.8a7.5,7.5,0,0,0-5.3-1.64A9.89,9.89,0,0,0,35,61.67c-1.25-8.06-9-8.57-9-8.57a7.42,7.42,0,0,0-5,1.71,2.94,2.94,0,0,1-1.45.69,3.88,3.88,0,0,1-1.59-.7,7.5,7.5,0,0,0-5.3-1.64c-8.52,1.18-8.84,9.53-8.84,9.6A35.69,35.69,0,0,0,5.52,75L.05,74.78,0,76l5.75.22.11,0A43.29,43.29,0,0,0,8.06,84a22.34,22.34,0,0,0,4.13,7.2c1.5,1.78,2.74,1.44,3.16,1.25,1.55-.32,1.8-2.43,1.7-3.59,0-.91-.18-3.5-.21-3.86a2.22,2.22,0,0,1,.7-1.64,3.29,3.29,0,0,1,2.16-.64,2.91,2.91,0,0,1,2.2.83A2,2,0,0,1,22.31,85a41.43,41.43,0,0,0-.17,4.62A2.91,2.91,0,0,0,24,92.53a1.7,1.7,0,0,0,.54.09,3.37,3.37,0,0,0,2.2-1.21c2.38-2.13,3.59-6.48,3.63-6.62.48-1.34,1-3.27,1.51-5,.31-1.08.6-2.09.85-2.87l.3-.06.14-.05a8.92,8.92,0,0,1,6.51-.32,33.52,33.52,0,0,0,12.95,2.39,39.12,39.12,0,0,0,12.9-2.21,10.13,10.13,0,0,1,2.7-.49v0A32.75,32.75,0,0,0,70,83.94a25.46,25.46,0,0,0,3.89,7.26C75.36,93,76.61,92.64,77,92.45c1.54-.32,1.8-2.43,1.7-3.59,0-.91-.18-3.5-.21-3.86a2.22,2.22,0,0,1,.7-1.64,3.29,3.29,0,0,1,2.16-.64,3,3,0,0,1,2.2.83A2.09,2.09,0,0,1,84,85a38.59,38.59,0,0,0-.17,4.62,2.92,2.92,0,0,0,1.84,2.9,1.81,1.81,0,0,0,.55.09,3.37,3.37,0,0,0,2.2-1.21c2.28-2,3.81-6,4-6.39a32.79,32.79,0,0,0,1.8-5.72c.24-.93.46-1.79.66-2.43l.57-.16A42.22,42.22,0,0,1,100,76.09ZM67.16,62.81c0-.3.3-7.38,7.75-8.41a6.27,6.27,0,0,1,4.37,1.39l.35.23a6,6,0,0,0-1,.39,5.7,5.7,0,0,0-2.13,1.73A24.06,24.06,0,0,1,79,57.31,10.14,10.14,0,0,1,81.41,57a7.52,7.52,0,0,1,2.39.31A9.88,9.88,0,0,1,85,57.7c.41.14.78.37,1.23.52a5.47,5.47,0,0,0-2.06-1.84,3.19,3.19,0,0,0-.68-.3c.22-.15.37-.28.42-.31A6.19,6.19,0,0,1,88,54.35c.32,0,7.77.54,8,9.16a34.57,34.57,0,0,1-2.13,12.33c-10.62,2.76-21.45-.34-21.55-.36A11.32,11.32,0,0,0,69.11,75,34.67,34.67,0,0,1,67.16,62.81ZM5,62.81c0-.3.3-7.38,7.75-8.41a6.27,6.27,0,0,1,4.37,1.39l.41.27a5.45,5.45,0,0,0-.87.35,5.66,5.66,0,0,0-2.14,1.73A24.89,24.89,0,0,1,17,57.31,10.14,10.14,0,0,1,19.46,57a7.52,7.52,0,0,1,2.39.31,9.45,9.45,0,0,1,1.2.41c.41.14.78.37,1.22.52a5.4,5.4,0,0,0-2.06-1.84,3.77,3.77,0,0,0-.8-.34l.37-.27a6.13,6.13,0,0,1,4.07-1.42c.32,0,7.77.54,8,9.16a34.31,34.31,0,0,1-2.15,12.38C17.15,79,9.29,76.43,7,75.44A34.94,34.94,0,0,1,5,62.81ZM30.67,79.48c-.48,1.68-1,3.58-1.5,4.93,0,0-1.18,4.22-3.3,6.1l-.06.06c-.26.3-1,.93-1.42.78a1.71,1.71,0,0,1-1-1.72,43.08,43.08,0,0,1,.16-4.47A3.31,3.31,0,0,0,23,83c.38.1.76.23,1.15.34s1,.37,1.49.52a9.54,9.54,0,0,0-1.21-1.07A8.32,8.32,0,0,0,23,82a7.77,7.77,0,0,0-3.23-.68,8,8,0,0,0-3.24.66,6.93,6.93,0,0,0-2.63,1.89c.77-.31,1.52-.56,2.27-.78A3.82,3.82,0,0,0,15.59,85v.07s.23,2.89.21,3.85c.06.69-.05,2.24-.74,2.34l-.14,0-.11.08s-.64.27-1.68-1a21.65,21.65,0,0,1-3.9-6.83,43.58,43.58,0,0,1-2-6.64c3.12,1.18,10.79,3,24.07.34C31.12,77.92,30.9,78.68,30.67,79.48Zm2.53-4A40.79,40.79,0,0,0,35,67.09a37.67,37.67,0,0,0,1.84,7.69A11,11,0,0,0,33.2,75.48Zm7-.1a8.19,8.19,0,0,0-1.95-.52,31.5,31.5,0,0,1-2.11-12c0-.3.3-7.38,7.75-8.41a6.38,6.38,0,0,1,4.37,1.39l.38.25a6.21,6.21,0,0,0-.93.37,5.62,5.62,0,0,0-2.13,1.73A24.73,24.73,0,0,1,48,57.31,10.21,10.21,0,0,1,50.43,57a7.52,7.52,0,0,1,2.39.31,9.45,9.45,0,0,1,1.2.41c.41.14.78.37,1.23.52a5.54,5.54,0,0,0-2.06-1.84,3.53,3.53,0,0,0-.75-.32c.21-.14.35-.26.4-.29a6.19,6.19,0,0,1,4.07-1.42c.32,0,7.77.54,8,9.17A34.64,34.64,0,0,1,63,76.2,36,36,0,0,1,40.16,75.38Zm24.93.16-.66.22a39.88,39.88,0,0,0,1.69-8.28A42.64,42.64,0,0,0,67.8,75,10.44,10.44,0,0,0,65.09,75.54ZM93,79a32.6,32.6,0,0,1-1.72,5.5l0,.06s-1.53,4.06-3.67,6l-.06.06c-.27.3-1,.92-1.42.78a1.66,1.66,0,0,1-1-1.72,39.83,39.83,0,0,1,.16-4.47A3.45,3.45,0,0,0,84.71,83l1.06.32c.49.15,1,.37,1.49.52a9.54,9.54,0,0,0-1.21-1.07,8.32,8.32,0,0,0-1.43-.8,7.77,7.77,0,0,0-3.23-.68,8,8,0,0,0-3.24.66,6.93,6.93,0,0,0-2.63,1.89,20.37,20.37,0,0,1,2.35-.8,3.69,3.69,0,0,0-.6,2v.07s.22,2.89.21,3.85c.06.69-.06,2.24-.74,2.34h-.11l-.12.08c-.22.12-.85.07-1.68-.92a24.83,24.83,0,0,1-3.67-6.9,31.53,31.53,0,0,1-1.67-7.28,10.68,10.68,0,0,1,2.48.45c.47.14,10.82,3.1,21.46.57C93.29,77.76,93.14,78.34,93,79Z"/></svg>