<svg id="Layer_1" data-name="Layer 1" xmlns="http://www.w3.org/2000/svg" viewBox="0 0 100 100"><defs><style>.cls-1{fill:#54b45d;}</style></defs><title>Artboard 1</title><path class="cls-1" d="M35.89,55c-3.16-.38-6,2-6.08,2.09a3.75,3.75,0,0,1-1.86.88,5.13,5.13,0,0,1-2-.91,9.14,9.14,0,0,0-6.43-2C9.05,56.49,8.66,66.7,8.66,66.78,8.11,77.4,13.52,88.46,14,89.33a27,27,0,0,0,5,8.73c1.8,2.15,3.29,1.73,3.76,1.5,1.83-.37,2.12-2.9,2-4.3,0-1.1-.23-4.29-.26-4.71a2.91,2.91,0,0,1,.88-2.08,3.21,3.21,0,0,1,1.15-.61,13.3,13.3,0,0,1,1.41-.06,6,6,0,0,1,1,0,2.31,2.31,0,0,0,.37,0,2.87,2.87,0,0,1,1.5.86,2.54,2.54,0,0,1,.52,1.85,47.24,47.24,0,0,0-.2,5.64,3.47,3.47,0,0,0,2.19,3.45,2,2,0,0,0,.63.1,4.06,4.06,0,0,0,2.62-1.44c2.78-2.49,4.64-7.28,4.83-7.79,6.38-12.68,5.75-22.51,5.72-22.9C46.74,55.69,36,55,35.89,55ZM40.2,90l0,.06s-1.87,5-4.51,7.32l-.07.07c-.34.4-1.25,1.17-1.83,1a2.14,2.14,0,0,1-1.29-2.2,51.28,51.28,0,0,1,.19-5.47,4,4,0,0,0-.41-2.24,7,7,0,0,1,.81.28l1,.4c.67.28,1.3.64,2,.93a16.16,16.16,0,0,0-1.69-1.5,12.12,12.12,0,0,0-2-1.14A9.26,9.26,0,0,0,30,86.68a6.84,6.84,0,0,0-1.85-.34h-.3a6.16,6.16,0,0,0-2,.33,10.73,10.73,0,0,0-2.49.77,10.25,10.25,0,0,0-3.66,2.67,20.53,20.53,0,0,1,4-1.7,4.62,4.62,0,0,0-.6,2.13v.08s.27,3.53.26,4.7c0,.58,0,2.8-1,3l-.15,0-.1.06s-.84.44-2.2-1.18a26.2,26.2,0,0,1-4.76-8.33l0-.08C15.1,88.66,9.45,77.32,10,66.84c0-.38.35-9.19,9.66-10.48a7.92,7.92,0,0,1,5.42,1.71l0,0a8,8,0,0,0,1,.62,9.37,9.37,0,0,0-1.8.63,7.94,7.94,0,0,0-2.81,2.15,23.23,23.23,0,0,1,3.18-1.18,12.15,12.15,0,0,1,3.19-.48,10.52,10.52,0,0,1,1.59.08,11.91,11.91,0,0,1,1.57.36,11.78,11.78,0,0,1,1.56.58c.52.21,1,.52,1.56.74A10,10,0,0,0,33,60.3a8.3,8.3,0,0,0-3.19-1.61,6.63,6.63,0,0,0,.89-.61s2.49-2.08,5.1-1.78c.4,0,9.68.67,10,11.4C45.81,67.8,46.42,77.62,40.2,90Z"/><path class="cls-1" d="M91.2,91.1l-14.27-36,.07,0-.51-1.23,0,0-3.7-9.33a5.4,5.4,0,0,0-2.9-3,5.3,5.3,0,0,0-3.49-.23L59.18,23.67l4.4-16.33L39.34,3.74l-.19,1.32L61.91,8.44,57.78,23.75l7.31,18-.19.08a5.41,5.41,0,0,0-3,7l1.34,3.38-.12,0,.51,1.24.1,0L80.64,96.14a1.81,1.81,0,0,0,1,1,1.78,1.78,0,0,0,.71.15,1.74,1.74,0,0,0,.67-.13l6.78-2.72A2.57,2.57,0,0,0,91.2,91.1ZM77.61,60.43l-8.35,3.4-1.88-4.76,8.32-3.46Zm-14.47-12a4,4,0,0,1,0-3.12,4.07,4.07,0,0,1,2.23-2.18l.8-.32A4.09,4.09,0,0,1,71.5,45l1.31,3.32-8.34,3.41Zm10.16,1.2,1.91,4.79-8.32,3.46L65,53Zm16,43.61L82.5,95.91a.48.48,0,0,1-.37,0,.49.49,0,0,1-.25-.26L69.75,65.07l8.35-3.4L90,91.59h0A1.23,1.23,0,0,1,89.27,93.19Z"/><path class="cls-1" d="M68.18,79h-.05c-.74,0-6.41-.7-7.94-8.11a.67.67,0,0,0-1.31,0C57.35,78.31,51.67,79,50.94,79h0a.7.7,0,0,0-.49.19.67.67,0,0,0-.2.48.66.66,0,0,0,.2.48.68.68,0,0,0,.47.19h0c.74,0,6.41.7,7.94,8.11a.67.67,0,0,0,1.31,0c1.53-7.41,7.2-8.06,7.94-8.11h0a.65.65,0,0,0,.68-.54.81.81,0,0,0,0-.16A.66.66,0,0,0,68.18,79Zm-8.64,6.9a10.41,10.41,0,0,0-5.91-6.23,10.41,10.41,0,0,0,5.91-6.23,10.37,10.37,0,0,0,5.9,6.23A10.37,10.37,0,0,0,59.54,85.9Z"/><path class="cls-1" d="M42.13,71.88c-.38,0-2.94-.38-3.64-3.78a.68.68,0,0,0-.66-.54.67.67,0,0,0-.65.54c-.7,3.41-3.27,3.75-3.64,3.78a.63.63,0,0,0-.48.19.67.67,0,0,0-.21.48.68.68,0,0,0,.21.48.7.7,0,0,0,.48.18c.37,0,2.94.38,3.64,3.78a.67.67,0,0,0,.65.54.68.68,0,0,0,.66-.54c.7-3.4,3.26-3.75,3.64-3.78a.7.7,0,0,0,.58-.31.62.62,0,0,0,.1-.38A.66.66,0,0,0,42.13,71.88Zm-4.3,3a5.46,5.46,0,0,0-2.15-2.29,5.55,5.55,0,0,0,2.15-2.3A5.63,5.63,0,0,0,40,72.55,5.53,5.53,0,0,0,37.83,74.84Z"/><path class="cls-1" d="M53.59,67.22a.66.66,0,0,0,1.3,0c.71-3.41,3.27-3.75,3.65-3.78a.63.63,0,0,0,.58-.32.69.69,0,0,0,.1-.37.66.66,0,0,0-.68-.65c-.38,0-2.94-.37-3.65-3.78a.66.66,0,0,0-1.3,0c-.71,3.41-3.28,3.75-3.65,3.78a.68.68,0,0,0-.48.19.67.67,0,0,0-.2.48.66.66,0,0,0,.2.48.76.76,0,0,0,.48.19C50.3,63.47,52.88,63.81,53.59,67.22Zm.65-6.75a5.56,5.56,0,0,0,2.16,2.3,5.56,5.56,0,0,0-2.16,2.3,5.56,5.56,0,0,0-2.16-2.3A5.56,5.56,0,0,0,54.24,60.47Z"/></svg>