<svg id="Layer_1" data-name="Layer 1" xmlns="http://www.w3.org/2000/svg" viewBox="0 0 100 100"><defs><style>.cls-1{fill:#476381;}</style></defs><title>Artboard 1</title><path class="cls-1" d="M91.05,3.09,84.26.36a1.82,1.82,0,0,0-2.36,1L65,44.1l-.11-.05-.51,1.24.12.05-1.34,3.38a5.42,5.42,0,0,0,3,7l.18.08L59,73.89l4.14,15.34-17.56,2.6A7.58,7.58,0,0,0,47,89.44a7.29,7.29,0,0,0,.42-3.83,4.78,4.78,0,0,0-.3-1,4.16,4.16,0,0,0,2.35-2.89,4.49,4.49,0,0,0-.17-2.82,2.82,2.82,0,0,0-1.89-1.73l-.33,1.29a1.52,1.52,0,0,1,1,1,3.12,3.12,0,0,1,.1,2,2.61,2.61,0,0,1-1.89,2.07,2.74,2.74,0,0,0-.59-.36c3-8.95,2.65-15.24,2.63-15.55a18.61,18.61,0,0,0-.21-2.22l.18.36a3.91,3.91,0,0,0,1.4-5.33,4.34,4.34,0,0,0-2.23-2.08,3.46,3.46,0,0,0-2.82,0,13.15,13.15,0,0,0-7.59-3.45c-3.16-.38-6,2-6.08,2.09a3.64,3.64,0,0,1-1.87.88A5.24,5.24,0,0,1,27.07,57a9.14,9.14,0,0,0-6.44-2C10.19,56.41,9.8,66.64,9.79,66.73a36.59,36.59,0,0,0,.58,8.13,5,5,0,0,0-2.8,2.65,5,5,0,0,0,.75,4.37c1.29,2.13,1.39,3,1.39,3.19l0,.14a6,6,0,0,0,.21,4,5.69,5.69,0,0,0,5,3.84,4.16,4.16,0,0,0,1.47-.27l.16-.1a25.73,25.73,0,0,0,3.58,5.41c1.81,2.14,3.3,1.72,3.77,1.5,1.83-.38,2.13-2.91,2-4.31,0-1.11-.22-4.3-.25-4.73a2.79,2.79,0,0,1,.88-2.07,3,3,0,0,1,1.15-.61,11.1,11.1,0,0,1,1.41-.07,5.18,5.18,0,0,1,1,0l.37,0a2.84,2.84,0,0,1,1.51.86,2.58,2.58,0,0,1,.52,1.85,52.17,52.17,0,0,0-.21,5.65,3.47,3.47,0,0,0,2.2,3.45,1.74,1.74,0,0,0,.63.11,4,4,0,0,0,2.62-1.45,17,17,0,0,0,3.3-4.46l23.76-3.53L60.41,74l7.17-17.69A5.37,5.37,0,0,0,74,53.08l3.7-9.35.06,0,.51-1.23-.07,0L92.48,6.43A2.57,2.57,0,0,0,91.05,3.09ZM48.52,61a2.64,2.64,0,0,1-.58,3.37,12.31,12.31,0,0,0-2.31-5A2.71,2.71,0,0,1,48.52,61ZM15.89,91.51c-1.76.68-3.89-.57-4.76-2.81a4.59,4.59,0,0,1-.2-3c.38-.73-.11-2.24-1.47-4.49A3.75,3.75,0,0,1,8.82,78a3.51,3.51,0,0,1,1.81-1.77A58.59,58.59,0,0,0,15.1,89.32c.27.77.57,1.49.88,2.18Zm21,5.84-.06.07c-.35.4-1.25,1.18-1.85,1a2.16,2.16,0,0,1-1.28-2.2,51.48,51.48,0,0,1,.19-5.48,4,4,0,0,0-.41-2.24,4.56,4.56,0,0,1,.81.28l1,.39c.67.28,1.31.65,2,.94a16.25,16.25,0,0,0-1.69-1.51,12.12,12.12,0,0,0-2-1.14,9.25,9.25,0,0,0-2.35-.77,6.57,6.57,0,0,0-1.93-.35H29a6.21,6.21,0,0,0-2,.33,10.73,10.73,0,0,0-2.49.77,10.19,10.19,0,0,0-3.66,2.68,20.79,20.79,0,0,1,4-1.7,4.58,4.58,0,0,0-.6,2.13v.08s.27,3.54.26,4.7c.05.59,0,2.82-1,3l-.15,0-.1.06s-.84.44-2.21-1.18a26.16,26.16,0,0,1-4.77-8.34l0-.08c-.06-.12-5.72-11.48-5.18-22,0-.37.38-9.2,9.67-10.49A7.87,7.87,0,0,1,26.24,58l0,0a7.59,7.59,0,0,0,1,.62,9.27,9.27,0,0,0-1.79.63,8,8,0,0,0-2.83,2.16,23.54,23.54,0,0,1,3.2-1.19,12.59,12.59,0,0,1,3.2-.48,10.6,10.6,0,0,1,1.59.09,9.87,9.87,0,0,1,1.57.36,14,14,0,0,1,1.56.57c.52.21,1,.52,1.56.75a9.35,9.35,0,0,0-1.22-1.3,7.29,7.29,0,0,0-1.51-1,7.7,7.7,0,0,0-1.7-.63,7.51,7.51,0,0,0,.91-.61s2.48-2.08,5.11-1.78c.39,0,9.69.67,10,11.42,0,.1.62,9.94-5.61,22.3l0,.07S39.49,95,36.84,97.35Zm5.76-6.83a55.57,55.57,0,0,0,2.66-6.13,1.63,1.63,0,0,1,.29.23l0,.15.2,0a3,3,0,0,1,.42,1A6.36,6.36,0,0,1,44,91.53a2,2,0,0,1-1.82.47l-.14.36-.21,0C42.25,91.43,42.54,90.7,42.6,90.52ZM72.75,52.58a4.1,4.1,0,0,1-5.31,2.27l-.8-.33a4.07,4.07,0,0,1-2.27-5.3l1.34-3.38,8.35,3.42ZM74.56,48,66.2,44.6l1.92-4.85,8.34,3.47Zm-5.94-9.51,1.89-4.77,8.35,3.41L77,42ZM91.24,5.93l-11.88,30L71,32.5,83.15,1.87a.46.46,0,0,1,.44-.3l.17,0,6.79,2.73A1.24,1.24,0,0,1,91.24,5.93Z"/><path class="cls-1" d="M25.9,68.65h-.15l-.28,0a13.52,13.52,0,0,1-3.91-.58l-.1,0a3.36,3.36,0,0,0-4.23,2.86.8.8,0,0,0,0,.15,11.63,11.63,0,0,0,1.72,7,3.24,3.24,0,0,0,2.78,1.59,3.19,3.19,0,0,0,3-2.07.19.19,0,0,0,0-.1,3.53,3.53,0,0,1,2.68-3,1.25,1.25,0,0,0,.25-.09l.18-.12.1-.07A3.25,3.25,0,0,0,29,71.87,3.2,3.2,0,0,0,25.9,68.65Zm1.19,4.59,0,0a4.85,4.85,0,0,0-3.62,3.93,1.89,1.89,0,0,1-3.39.19,10.11,10.11,0,0,1-1.52-6.14s0-.06,0-.1a2,2,0,0,1,2.59-1.79h.06a14.44,14.44,0,0,0,4.37.62h.28a1.89,1.89,0,0,1,1.24,3.26Z"/></svg>