<svg id="Layer_1" data-name="Layer 1" xmlns="http://www.w3.org/2000/svg" viewBox="0 0 100 100"><defs><style>.cls-1{fill:#476381;}</style></defs><title>Artboard 5</title><path class="cls-1" d="M75.64,0H24.41a9.59,9.59,0,0,0-9.58,9.58V50.9l-.05,0,.05,0V90.42A9.59,9.59,0,0,0,24.41,100H75.64a9.59,9.59,0,0,0,9.58-9.58V9.58A9.59,9.59,0,0,0,75.64,0ZM16.24,9.58a8.17,8.17,0,0,1,8.17-8.17H75.64a8.18,8.18,0,0,1,8.17,8.17V49.84c-3.12-2-6.7-.91-8.79,0a49.66,49.66,0,0,0,1.13-12.13c-.53-16.17-15.1-17.13-15.21-17.13-4.22-.5-8,2.68-8.15,2.81a5.11,5.11,0,0,1-2.69,1.24,7.15,7.15,0,0,1-2.92-1.28,12.31,12.31,0,0,0-8.64-2.68c-14.1,2-14.62,15.76-14.62,15.88A51.46,51.46,0,0,0,25.19,50c-2-1-5.73-2.17-9-.21ZM73.31,51a74.82,74.82,0,0,1-6.25,17.41l0,.07c0,.07-2.58,6.86-6.24,10.09l-.07.08c-.4.46-1.76,1.73-2.74,1.4a3.16,3.16,0,0,1-1.9-3.19,69.57,69.57,0,0,1,.27-7.53,5.07,5.07,0,0,0-1.05-3.73,6.48,6.48,0,0,0-4.94-2H50A7,7,0,0,0,45.49,65a5.52,5.52,0,0,0-1.76,4v.09s.37,4.84.35,6.43c.08,1,0,4-1.53,4.27l-.15,0-.13.09S41,80.66,39,78.31a35.92,35.92,0,0,1-6.56-11.47l0-.09c-.08-.15-7.84-15.71-7.1-30.11,0-.52.52-12.75,13.4-14.53a10.91,10.91,0,0,1,7.58,2.38l0,0c.1.07.54.37,1.12.69q-.68.15-1.32.36a10.46,10.46,0,0,0-3.41,1.85c1.25-.32,2.46-.58,3.67-.79A26.14,26.14,0,0,1,50,26.32c.6,0,1.2,0,1.8.05s1.2.11,1.79.23a30.5,30.5,0,0,1,3.63.9,9.34,9.34,0,0,0-3.35-2,5.4,5.4,0,0,0-1.17-.34,11.63,11.63,0,0,0,1-.69s3.47-2.92,7.12-2.49c.55,0,13.43.92,13.92,15.8a51.2,51.2,0,0,1-1.38,13l-.13.09Zm2.33,47.61H24.41a8.17,8.17,0,0,1-8.17-8.17V51.52c3.51-2.93,8.12-.48,9.37.29a83.47,83.47,0,0,0,5.53,15.54A37.12,37.12,0,0,0,38,79.24c2.43,2.88,4.37,2.26,4.93,2,3-.58,2.61-5.54,2.6-5.69,0-1.52-.31-5.93-.35-6.45a4.12,4.12,0,0,1,1.28-3A5.77,5.77,0,0,1,50.27,65a5.22,5.22,0,0,1,3.93,1.51A3.69,3.69,0,0,1,55,69.14a71.64,71.64,0,0,0-.28,7.71,4.54,4.54,0,0,0,2.86,4.51,2.54,2.54,0,0,0,.81.13c1.66,0,3.13-1.57,3.42-1.91,3.8-3.38,6.34-10,6.57-10.59a76.23,76.23,0,0,0,6.31-17.35c1.58-.91,5.87-2.89,9.17,0V90.42A8.18,8.18,0,0,1,75.64,98.59Z"/><path class="cls-1" d="M20.92,22.05V9.36A2.42,2.42,0,0,1,23.34,7H35.73a.7.7,0,0,0,.7-.71.7.7,0,0,0-.7-.7H23.34a3.83,3.83,0,0,0-3.83,3.82V22.05a.71.71,0,0,0,.71.71A.7.7,0,0,0,20.92,22.05Z"/><path class="cls-1" d="M35.79,93.05H23.34a2.42,2.42,0,0,1-2.42-2.41V79.25a.7.7,0,0,0-.7-.71.71.71,0,0,0-.71.71V90.64a3.83,3.83,0,0,0,3.83,3.82H35.79a.7.7,0,0,0,.71-.7A.71.71,0,0,0,35.79,93.05Z"/><path class="cls-1" d="M79.82,78.48a.71.71,0,0,0-.7.71V90.64a2.41,2.41,0,0,1-2.42,2.41H65a.71.71,0,0,0-.71.71.7.7,0,0,0,.71.7H76.7a3.83,3.83,0,0,0,3.83-3.82V79.19A.71.71,0,0,0,79.82,78.48Z"/><path class="cls-1" d="M65,7H76.7a2.41,2.41,0,0,1,2.42,2.41V22a.71.71,0,0,0,1.41,0V9.36A3.83,3.83,0,0,0,76.7,5.54H65a.7.7,0,0,0-.71.7A.71.71,0,0,0,65,7Z"/><path class="cls-1" d="M64.32,32.33c-3.09-1-6.83-.29-11,2.05A9.38,9.38,0,0,1,50,35a7.79,7.79,0,0,1-3.2-.61c-4.27-2.36-8-3.06-11.1-2.07a8.1,8.1,0,0,0-4.65,3.77C24,47.27,38.55,73.18,39.18,74.28l0,.07a1.61,1.61,0,0,0,1.31.74A1.42,1.42,0,0,0,41,75a1.66,1.66,0,0,0,1-1.82c-.1-4.3.08-6.41.08-6.5a6.44,6.44,0,0,1,6.14-6.46l1.55,0,2,0A6.47,6.47,0,0,1,58,66.7v.07s.18,2.13.08,6.39a1.67,1.67,0,0,0,1,1.86,1.55,1.55,0,0,0,1.76-.67l.05-.07c.62-1.1,15.21-27,8.09-38.18A8.1,8.1,0,0,0,64.32,32.33ZM59.68,73.54c-.09.1-.13.13-.17.14a1.19,1.19,0,0,1,0-.45c.1-4.18-.06-6.28-.08-6.56a8,8,0,0,0-7.53-7.84l-1.57,0-2.15,0a7.92,7.92,0,0,0-7.47,7.84c0,.28-.18,2.39-.08,6.6a1.27,1.27,0,0,1,0,.41s-.09,0-.17-.14c-.67-1.19-14.67-26.47-8.08-36.71l0-.08a6.68,6.68,0,0,1,3.83-3.08c2.71-.86,6.07-.2,10,2a9,9,0,0,0,3.87.77h0a10.36,10.36,0,0,0,3.84-.78c3.91-2.16,7.26-2.83,10-2a6.77,6.77,0,0,1,3.86,3.09l0,.08C74.35,47.07,60.34,72.35,59.68,73.54Z"/></svg>