<svg id="Layer_1" data-name="Layer 1" xmlns="http://www.w3.org/2000/svg" viewBox="0 0 100 100"><defs><style>.cls-1{fill:#fff;}.cls-2{fill:#54b45d;}</style></defs><title>Artboard 6</title><path class="cls-1" d="M20.49,21.65V8.78a2.45,2.45,0,0,1,2.45-2.45H35.5a.72.72,0,1,0,0-1.43H22.94a3.88,3.88,0,0,0-3.88,3.88V21.65a.72.72,0,1,0,1.43,0Z"/><path class="cls-1" d="M35.57,93.67H22.94a2.45,2.45,0,0,1-2.45-2.45V79.67a.72.72,0,1,0-1.43,0V91.22a3.88,3.88,0,0,0,3.88,3.88H35.57a.72.72,0,0,0,0-1.43Z"/><path class="cls-1" d="M80.23,78.89a.71.71,0,0,0-.72.71V91.22a2.45,2.45,0,0,1-2.45,2.45H65.18a.72.72,0,1,0,0,1.43H77.06a3.88,3.88,0,0,0,3.88-3.88V79.6A.71.71,0,0,0,80.23,78.89Z"/><path class="cls-1" d="M65.18,6.33H77.06a2.45,2.45,0,0,1,2.45,2.45V21.59a.72.72,0,0,0,1.43,0V8.78A3.88,3.88,0,0,0,77.06,4.9H65.18a.72.72,0,1,0,0,1.43Z"/><path class="cls-1" d="M73.62,51a75.29,75.29,0,0,1-6.34,17.66l0,.08c0,.07-2.62,7-6.32,10.23l-.08.07c-.4.48-1.79,1.76-2.78,1.43a3.19,3.19,0,0,1-1.92-3.24,68.5,68.5,0,0,1,.27-7.64,5.12,5.12,0,0,0-1.07-3.77,6.5,6.5,0,0,0-5-2.07,2.28,2.28,0,0,0-.41,0,7,7,0,0,0-4.52,1.53,5.53,5.53,0,0,0-1.79,4.1v.08S44,74.35,44,76c.08,1,0,4.11-1.55,4.33l-.16,0-.14.09s-1.28.7-3.29-1.68a36.93,36.93,0,0,1-6.66-11.64l0-.09c-.08-.16-8-15.93-7.2-30.54,0-.53.52-12.93,13.59-14.74a11.11,11.11,0,0,1,7.69,2.42l0,0a11.71,11.71,0,0,0,1.13.7,13.17,13.17,0,0,1,2.58-.3,12.15,12.15,0,0,1,2,.13l.75.16a8.93,8.93,0,0,0,1-.71s3.52-2.95,7.23-2.52c.55,0,13.62.93,14.11,16a51.63,51.63,0,0,1-1.4,13.14,14.27,14.27,0,0,1,1.68-.9A50,50,0,0,0,76.5,37.57C76,21.18,61.18,20.2,61.08,20.2c-4.29-.5-8.12,2.72-8.27,2.85a5.34,5.34,0,0,1-2.73,1.26,7.28,7.28,0,0,1-3-1.3,12.47,12.47,0,0,0-8.76-2.72c-14.3,2-14.84,16-14.84,16.1A52.52,52.52,0,0,0,24.81,50a11.78,11.78,0,0,1,1.57.87L25.56,52l-.32-.2a83.94,83.94,0,0,0,5.61,15.75,37.32,37.32,0,0,0,6.92,12.07c2.46,2.92,4.43,2.29,5,2,3-.6,2.65-5.62,2.63-5.77,0-1.54-.31-6-.35-6.54a4.1,4.1,0,0,1,1.3-3,5.89,5.89,0,0,1,3.9-1.17,5.29,5.29,0,0,1,4,1.54A3.75,3.75,0,0,1,55,69.42a70.3,70.3,0,0,0-.28,7.81,4.62,4.62,0,0,0,2.89,4.58,2.65,2.65,0,0,0,.82.13c1.69,0,3.18-1.6,3.48-1.94,3.85-3.43,6.42-10.11,6.66-10.74A77.81,77.81,0,0,0,75,51.66c-.35.2-.57.35-.62.38Z"/><path class="cls-1" d="M42.61,27.1c1.26-.33,2.49-.6,3.72-.8A25.38,25.38,0,0,1,50,26c.61,0,1.21,0,1.82.05s1.22.11,1.82.24a31.24,31.24,0,0,1,3.68.9,9.66,9.66,0,0,0-3.4-2,5.4,5.4,0,0,0-1.19-.34,5.07,5.07,0,0,1-2.72.89,6.52,6.52,0,0,1-2.61-.88,12.62,12.62,0,0,0-1.34.36A10.44,10.44,0,0,0,42.61,27.1Z"/><path class="cls-1" d="M52.73,24.85,52,24.69a12.15,12.15,0,0,0-2-.13,13.17,13.17,0,0,0-2.58.3,6.52,6.52,0,0,0,2.61.88A5.07,5.07,0,0,0,52.73,24.85Z"/><path class="cls-1" d="M64.5,32.08c-3.14-1-6.92-.3-11.2,2.07A9.37,9.37,0,0,1,50,34.8a7.91,7.91,0,0,1-3.25-.62c-4.33-2.4-8.12-3.1-11.26-2.1A8.16,8.16,0,0,0,30.8,35.9C23.57,47.23,38.37,73.51,39,74.62l0,.08a1.64,1.64,0,0,0,1.34.74,1.89,1.89,0,0,0,.45-.06,1.67,1.67,0,0,0,1-1.85c-.1-4.36.08-6.5.08-6.52v-.07a6.5,6.5,0,0,1,6.22-6.56l1.57,0,2,0a6.56,6.56,0,0,1,6.29,6.56V67a64.65,64.65,0,0,1,.08,6.48,1.69,1.69,0,0,0,1,1.89A1.59,1.59,0,0,0,61,74.7l0-.08c.64-1.11,15.43-27.39,8.21-38.72A8.2,8.2,0,0,0,64.5,32.08Zm-4.71,41.8c-.08.1-.13.13-.17.13a1.37,1.37,0,0,1,0-.44c.1-4.24-.06-6.38-.08-6.66a8.06,8.06,0,0,0-7.64-8l-1.59,0-2.18,0a8,8,0,0,0-7.57,7.95,63.8,63.8,0,0,0-.08,6.7,1.18,1.18,0,0,1,0,.4s-.09,0-.17-.13C39.54,72.67,25.34,47,32,36.64l0-.08A6.79,6.79,0,0,1,36,33.44c2.74-.88,6.15-.21,10.15,2a9.15,9.15,0,0,0,3.93.79h0a10.55,10.55,0,0,0,3.89-.8c4-2.19,7.36-2.86,10.11-2A6.87,6.87,0,0,1,68,36.56l0,.08C74.67,47,60.47,72.67,59.79,73.88Z"/><path class="cls-1" d="M75.35,49.88c-.12.58-.24,1.17-.38,1.78,1.66-.95,6.65-3,10,.69v-2C81.67,47.7,77.64,48.84,75.35,49.88Z"/><path class="cls-2" d="M47.4,24.86a11.71,11.71,0,0,1-1.13-.7l0,0a11.11,11.11,0,0,0-7.69-2.42C25.47,23.52,25,35.92,25,36.45c-.76,14.61,7.12,30.38,7.2,30.54l0,.09a36.93,36.93,0,0,0,6.66,11.64c2,2.38,3.28,1.69,3.29,1.68l.14-.09.16,0C44,80.06,44.06,77,44,76c0-1.6-.36-6.47-.36-6.52v-.08a5.53,5.53,0,0,1,1.79-4.1,7,7,0,0,1,4.52-1.53,2.28,2.28,0,0,1,.41,0,6.5,6.5,0,0,1,5,2.07,5.12,5.12,0,0,1,1.07,3.77,68.5,68.5,0,0,0-.27,7.64,3.19,3.19,0,0,0,1.92,3.24c1,.33,2.38-.95,2.78-1.43l.08-.07c3.7-3.27,6.29-10.16,6.32-10.23l0-.08A75.29,75.29,0,0,0,73.62,51c0-.07,0-.14,0-.21a51.63,51.63,0,0,0,1.4-13.14c-.49-15.09-13.56-16-14.11-16-3.71-.43-7.2,2.49-7.23,2.52a8.93,8.93,0,0,1-1,.71,5.4,5.4,0,0,1,1.19.34,9.66,9.66,0,0,1,3.4,2,31.24,31.24,0,0,0-3.68-.9c-.6-.13-1.21-.17-1.82-.24S50.61,26,50,26a25.38,25.38,0,0,0-3.67.32c-1.23.2-2.46.47-3.72.8a10.44,10.44,0,0,1,3.45-1.88A12.62,12.62,0,0,1,47.4,24.86Zm-.63,9.32A7.91,7.91,0,0,0,50,34.8a9.37,9.37,0,0,0,3.28-.65c4.28-2.37,8.06-3.07,11.2-2.07a8.2,8.2,0,0,1,4.72,3.82C76.44,47.23,61.65,73.51,61,74.62l0,.08a1.59,1.59,0,0,1-1.78.68,1.69,1.69,0,0,1-1-1.89A64.65,64.65,0,0,0,58.07,67v-.07a6.56,6.56,0,0,0-6.29-6.56l-2,0-1.57,0A6.5,6.5,0,0,0,42,66.94V67s-.18,2.16-.08,6.52a1.67,1.67,0,0,1-1,1.85,1.89,1.89,0,0,1-.45.06,1.64,1.64,0,0,1-1.34-.74l0-.08c-.63-1.11-15.43-27.39-8.2-38.72a8.16,8.16,0,0,1,4.71-3.82C38.65,31.08,42.44,31.78,46.77,34.18Z"/><path class="cls-2" d="M32.06,36.56l0,.08c-6.68,10.39,7.52,36,8.2,37.24.08.1.13.13.17.13a1.18,1.18,0,0,0,0-.4,63.8,63.8,0,0,1,.08-6.7A8,8,0,0,1,48.09,59l2.18,0,1.59,0a8.06,8.06,0,0,1,7.64,8c0,.28.18,2.42.08,6.66a1.37,1.37,0,0,0,0,.44s.09,0,.17-.13C60.47,72.67,74.67,47,68,36.64l0-.08A6.87,6.87,0,0,0,64,33.43c-2.75-.86-6.14-.19-10.11,2a10.55,10.55,0,0,1-3.89.8h0a9.15,9.15,0,0,1-3.93-.79c-4-2.21-7.41-2.88-10.15-2A6.79,6.79,0,0,0,32.06,36.56Z"/><path class="cls-2" d="M76,0H24a9,9,0,0,0-9,9V50.28c3.42-2.66,7.58-1.34,9.79-.28a52.52,52.52,0,0,1-1.29-13.61c0-.12.54-14.12,14.84-16.1A12.47,12.47,0,0,1,47.12,23a7.28,7.28,0,0,0,3,1.3,5.34,5.34,0,0,0,2.73-1.26c.15-.13,4-3.35,8.27-2.85.1,0,14.88,1,15.42,17.37a50,50,0,0,1-1.15,12.31c2.29-1,6.32-2.18,9.63.47V9A9,9,0,0,0,76,0ZM35.5,6.33H22.94a2.45,2.45,0,0,0-2.45,2.45V21.65a.72.72,0,1,1-1.43,0V8.78A3.88,3.88,0,0,1,22.94,4.9H35.5a.72.72,0,1,1,0,1.43ZM80.94,21.59a.72.72,0,0,1-1.43,0V8.78a2.45,2.45,0,0,0-2.45-2.45H65.18a.72.72,0,1,1,0-1.43H77.06a3.88,3.88,0,0,1,3.88,3.88Z"/><path class="cls-2" d="M75,51.66a77.81,77.81,0,0,1-6.4,17.6c-.24.63-2.81,7.31-6.66,10.74-.3.34-1.79,1.94-3.48,1.94a2.65,2.65,0,0,1-.82-.13,4.62,4.62,0,0,1-2.89-4.58A70.3,70.3,0,0,1,55,69.42a3.75,3.75,0,0,0-.76-2.72,5.29,5.29,0,0,0-4-1.54,5.89,5.89,0,0,0-3.9,1.17,4.1,4.1,0,0,0-1.3,3c0,.52.38,5,.35,6.54,0,.15.39,5.17-2.63,5.77-.57.27-2.54.9-5-2a37.32,37.32,0,0,1-6.92-12.07,83.94,83.94,0,0,1-5.61-15.75c-1.32-.81-6.36-3.49-10,.12L15,51.71V91a9,9,0,0,0,9,9H76a9,9,0,0,0,9-9V51.63l-.33.33C81.27,48.58,76.63,50.71,75,51.66ZM35.57,95.1H22.94a3.88,3.88,0,0,1-3.88-3.88V79.67a.72.72,0,1,1,1.43,0V91.22a2.45,2.45,0,0,0,2.45,2.45H35.57a.72.72,0,0,1,0,1.43Zm45.37-3.88a3.88,3.88,0,0,1-3.88,3.88H65.18a.72.72,0,1,1,0-1.43H77.06a2.45,2.45,0,0,0,2.45-2.45V79.6a.72.72,0,0,1,1.43,0Z"/><path class="cls-1" d="M73.67,50.78c0,.07,0,.14,0,.21l.73,1c.05,0,.27-.18.62-.38.14-.61.26-1.2.38-1.78A14.27,14.27,0,0,0,73.67,50.78Z"/><path class="cls-1" d="M25.24,51.84c-.15-.61-.29-1.22-.43-1.84-2.21-1.06-6.37-2.38-9.79.28v1.43l.25.25C18.88,48.35,23.92,51,25.24,51.84Z"/><path class="cls-1" d="M26.38,50.87A11.78,11.78,0,0,0,24.81,50c.14.62.28,1.23.43,1.84l.32.2Z"/></svg>