<svg id="Layer_1" data-name="Layer 1" xmlns="http://www.w3.org/2000/svg" viewBox="0 0 100 100"><defs><style>.cls-1{fill:#476381;}</style></defs><title>Artboard 1</title><path class="cls-1" d="M87.69,30.65a35.12,35.12,0,0,0-.42-4.38l-.1-.61-.61.12c-6.68,1.34-9.19-5.48-9.29-5.77l-.12-.34-.36-.05c-7-1.09-6.35-7.64-6.32-7.92l0-.48-.46-.15c-2.44-.78-3.42-3.2-3.79-4.57l-.11-.39-.27,0h-.14L64.88,6V6c-5.57-.15-10.37,3.88-10.58,4.06-.67.55-2.72,2-4.22,1.92-1.84-.09-4.47-1.95-4.47-1.95A17.51,17.51,0,0,0,33.31,6.21C13.1,9,12.35,28.78,12.34,29c-1.08,21,10,43.63,10.51,44.68A54.73,54.73,0,0,0,32.73,90.9C36.2,95,38.85,94,39.46,93.66c4-.73,3.52-7.65,3.5-7.89,0-2.23-.46-8.78-.51-9.39a6.44,6.44,0,0,1,2-4.71c2.31-2,5.85-1.78,5.91-1.78,2.81.12,4.85.92,6,2.38a5.82,5.82,0,0,1,1.19,4.21,102.25,102.25,0,0,0-.4,11.22,6.2,6.2,0,0,0,3.87,6.16,3.09,3.09,0,0,0,1,.17c2.29,0,4.42-2.33,4.7-2.67,5.53-4.9,9.22-14.57,9.5-15.31C89,50.89,87.7,30.83,87.69,30.65ZM75.24,75.54l0,.06c0,.1-3.79,10.11-9.21,14.89l-.06.06c-.68.8-2.8,2.74-4.46,2.18a5,5,0,0,1-3.07-5,105.87,105.87,0,0,1,.4-11.07,7,7,0,0,0-1.44-5.1A6.89,6.89,0,0,0,56,70.29l.73.23a32.88,32.88,0,0,1,6.28,3,20.53,20.53,0,0,0-5.94-3.88A17.93,17.93,0,0,0,50,68.2a19.71,19.71,0,0,0-3.6.36A18.88,18.88,0,0,0,43,69.63a17.89,17.89,0,0,0-5.92,3.9,26.52,26.52,0,0,1,6.25-3c.38-.13.77-.23,1.15-.33a6.33,6.33,0,0,0-.79.6,7.56,7.56,0,0,0-2.43,5.59v.07c0,.07.55,7.09.52,9.38,0,.06.4,6.24-2.6,6.69l-.13,0-.11.07s-2.08,1.33-5.3-2.48A53.59,53.59,0,0,1,24,73.22l0-.07c-.11-.23-11.49-23-10.4-44.14,0-.77.75-19,19.93-21.61A16.59,16.59,0,0,1,44.89,11a16,16,0,0,0,2.88,1.61,12.09,12.09,0,0,0-2.64.83,12.4,12.4,0,0,0-4,2.77,24.21,24.21,0,0,1,4.36-1.9A15.62,15.62,0,0,1,50,13.55a12.58,12.58,0,0,1,2.29.14l1.12.24a2.73,2.73,0,0,1,.56.15l.55.19a13.9,13.9,0,0,1,2.16.9,9,9,0,0,1,1,.58c.34.21.69.4,1,.6-.27-.29-.56-.58-.86-.87a7.11,7.11,0,0,0-.92-.81L56,14a7.15,7.15,0,0,0-1.1-.57,11.29,11.29,0,0,0-2.33-.81A12,12,0,0,0,55.08,11c.05,0,4.89-4.08,10.15-3.77l0,.11.1.27c0,.13.09.25.14.38s.08.2.13.3.12.27.19.4.1.21.16.31.16.27.24.41l.2.31.3.4.24.29c.12.13.25.26.38.38l.26.26c.16.13.33.25.5.37s.17.13.27.19a5.7,5.7,0,0,0,.89.45c0,1.71.41,7.48,7,8.7,0,.08.08.19.14.3a.61.61,0,0,0,.07.14c0,.08.07.16.12.25l.1.19c0,.08.09.17.14.26l.14.23c0,.09.1.18.16.27l.17.26c.06.09.11.18.18.27s.13.19.2.29l.21.27a3.25,3.25,0,0,0,.23.29l.24.28.26.29.26.27.3.28.3.26.32.26c.11.09.23.16.34.24s.23.17.35.24.26.15.39.22l.36.21.46.2.36.15c.23.08.47.15.71.21L83,27c.29.06.59.11.89.15l.35,0c.2,0,.4,0,.61,0H85l.3,0a6.66,6.66,0,0,0,.76-.06h.16a33.46,33.46,0,0,1,.31,3.65C86.51,30.91,87.75,50.69,75.24,75.54Z"/></svg>