<svg id="Layer_1" data-name="Layer 1" xmlns="http://www.w3.org/2000/svg" viewBox="0 0 100 100"><defs><style>.cls-1{fill:#54b45d;}.cls-2{fill:#dbdbdb;}</style></defs><title>Artboard 5</title><polygon class="cls-1" points="55.44 47.65 48.8 46.08 56.71 12.72 58.09 13.04 50.5 45.03 54.4 45.95 61.98 13.97 63.36 14.3 55.44 47.65"/><polygon class="cls-1" points="63.72 1.58 68.35 15.09 67.01 15.55 62.6 2.68 52.89 12.19 51.9 11.18 62.1 1.2 63.24 0.06 63.72 1.58"/><polygon class="cls-1" points="68.88 16.34 61.8 14.64 62.13 13.27 68.22 14.72 68.88 16.34"/><rect class="cls-1" x="54.19" y="9.71" width="1.41" height="5.15" transform="translate(30.21 62.83) rotate(-76.59)"/><path class="cls-1" d="M53.8,11.28l4.47,1L57.41,16l-.63-3.06-4.55-.52A7.57,7.57,0,0,1,51,12c.07-.08,1.78-1.75,1.78-1.75Z"/><path class="cls-2" d="M54.52,20.11a9.25,9.25,0,0,0,3.4,2.22c1.55.34,3.79-.95,3.79-.95s4.66-2.75,9-1.46c0,0,15.46,3.55,13,21.07,0,0-1.55,15.27-14.6,32.82,0,0-4.23,7.25-9.13,10.27,0,0-2.47,2-4.2,1.11a4.3,4.3,0,0,1-1.9-4.71A79.34,79.34,0,0,1,55.64,72s1.71-5.07-5-6.54c0,0-6.16-1.6-7.45,4.26,0,0-.52,5.47-.85,7.2,0,0-.49,5.23-3.33,5.16,0,0-2.12.94-4.28-2.76a41.41,41.41,0,0,1-5.17-14.3s-5.76-19-2.06-35.17c0,0,3-14.71,18.49-14.16A13.08,13.08,0,0,1,54.52,20.11Z"/><path class="cls-1" d="M56.76,86.14a2.84,2.84,0,0,1-1.35-.33,5,5,0,0,1-2.25-5.47A77.94,77.94,0,0,1,55,71.85a4.26,4.26,0,0,0-.33-3.18c-.69-1.2-2.07-2-4.12-2.49a6.69,6.69,0,0,0-4.56.54,4.73,4.73,0,0,0-2,3.14c0,.56-.54,5.54-.86,7.22,0,.17-.56,5.68-3.91,5.74-.63.19-2.88.52-5-3.12a41.54,41.54,0,0,1-5.25-14.49c-.31-1.06-5.67-19.68-2.06-35.48,0-.14,3.24-15.29,19.21-14.72a13.74,13.74,0,0,1,9,4.62,8.14,8.14,0,0,0,3,2,6,6,0,0,0,3.29-.87c.2-.11,5-2.89,9.53-1.53.11,0,16,3.89,13.49,21.85,0,.12-1.71,15.62-14.71,33.11-.36.62-4.45,7.44-9.31,10.45A6.56,6.56,0,0,1,56.76,86.14ZM48.83,64.59a9.36,9.36,0,0,1,2,.22c2.44.53,4.14,1.6,5,3.18a5.62,5.62,0,0,1,.44,4.27,76.69,76.69,0,0,0-1.76,8.32,3.61,3.61,0,0,0,1.54,4c1.06.58,2.82-.55,3.41-1l.08,0c4.69-2.89,8.85-10,8.89-10l0-.07C81.29,56.21,83,41.07,83,40.92c2.34-16.68-11.85-20.17-12.45-20.31-4-1.2-8.41,1.36-8.46,1.38-.26.15-2.54,1.42-4.3,1A9.5,9.5,0,0,1,54,20.6l0,0a12.5,12.5,0,0,0-8-4.14c-14.7-.53-17.64,13-17.76,13.59-3.62,15.84,2,34.64,2.05,34.83l0,.08a40.86,40.86,0,0,0,5.07,14c1.79,3.07,3.34,2.51,3.41,2.49l.13,0h.19c2.09,0,2.57-4.48,2.57-4.53.33-1.74.85-7.14.86-7.2V69.6a6.08,6.08,0,0,1,2.7-4.09A7,7,0,0,1,48.83,64.59Z"/><path class="cls-1" d="M50.62,23.89A8.91,8.91,0,0,1,54,22.13a9.4,9.4,0,0,1,3.92-.23,8.78,8.78,0,0,1,1.93.53,8.29,8.29,0,0,1,1.71,1A7.86,7.86,0,0,1,63,24.75a9.86,9.86,0,0,1,1.06,1.6c-.56-.35-1-.77-1.52-1.09a13.53,13.53,0,0,0-1.55-.9,10.67,10.67,0,0,0-1.6-.68,12,12,0,0,0-1.68-.39,13.54,13.54,0,0,0-3.49-.08A25.37,25.37,0,0,0,50.62,23.89Z"/><path class="cls-1" d="M40,67a12.76,12.76,0,0,1,5-2.37c.46-.1.92-.2,1.39-.27l1.41-.13c.47,0,.94,0,1.41,0a11.45,11.45,0,0,1,1.42.17,13.09,13.09,0,0,1,5.21,2.12,14.57,14.57,0,0,1,2.16,1.76,22,22,0,0,1,1.76,2.12c-.78-.51-1.46-1.1-2.2-1.59l-1.13-.71c-.2-.11-.37-.25-.56-.34l-.6-.29c-.39-.19-.77-.41-1.17-.58l-1.22-.46a8.46,8.46,0,0,0-1.24-.37,6.73,6.73,0,0,0-1.26-.27,16.34,16.34,0,0,0-5.18-.12A23,23,0,0,0,40,67Z"/><path class="cls-1" d="M50,100C27.1,99.72,21.61,79.26,21.29,78a11,11,0,0,0-10.55-7.11H.71a.7.7,0,0,1-.71-.7.71.71,0,0,1,.71-.71h10a12.41,12.41,0,0,1,11.93,8,.49.49,0,0,1,0,.11c.19.85,5,20.75,27.36,21,21.07-.82,27.29-20.86,27.35-21.07l0-.06a12.42,12.42,0,0,1,12-8h9.91a.71.71,0,0,1,.71.71.7.7,0,0,1-.71.7h-10A10.88,10.88,0,0,0,78.7,78C78.38,79,71.68,99.16,50,100Z"/></svg>