<svg id="Layer_1" data-name="Layer 1" xmlns="http://www.w3.org/2000/svg" viewBox="0 0 100 100"><defs><style>.cls-1{fill:#476381;}.cls-2{fill:#dbdbdb;}</style></defs><title>Artboard 4</title><path class="cls-1" d="M50,100C27.1,99.72,21.61,79.26,21.29,78a10.84,10.84,0,0,0-10.55-7.11H.71a.7.7,0,0,1-.71-.7.71.71,0,0,1,.71-.71h10a12.41,12.41,0,0,1,11.93,8,.36.36,0,0,1,0,.11c.19.85,5,20.75,27.36,21,21.07-.82,27.29-20.86,27.35-21.07l0-.06a12.42,12.42,0,0,1,12-8h9.91a.71.71,0,0,1,.71.71.7.7,0,0,1-.71.7h-10A10.88,10.88,0,0,0,78.7,78C78.38,79,71.68,99.16,50,100Z"/><polygon class="cls-2" points="50 99.29 50 99.29 50 99.29 50 99.29"/><path class="cls-1" d="M50,100a.71.71,0,0,1-.71-.71.67.67,0,0,1,.21-.49.69.69,0,0,1,.5-.21.7.7,0,0,1,.71.7A.72.72,0,0,1,50,100Z"/><path class="cls-2" d="M78.36,64.54C77.78,46.89,62,46,62,46c-4.46-.52-8.57,3-8.57,3s-2,1.65-3.57,1.58A9.15,9.15,0,0,1,46.1,49,13.1,13.1,0,0,0,37,46.15C21.6,48.28,21.21,63.26,21.21,63.26a62.08,62.08,0,0,0,2.45,19.15C26.56,88.7,33.79,99.1,50,99.29c15.32-.59,22.93-10.94,26.12-17.08C78.86,71.59,78.36,64.54,78.36,64.54Z"/><path class="cls-1" d="M50,100C33.37,99.8,26,89.08,23,82.71l0-.11A62.1,62.1,0,0,1,20.5,63.22c0-.14.59-15.58,16.38-17.77a13.67,13.67,0,0,1,9.67,3,8.08,8.08,0,0,0,3.3,1.45c1.07.08,2.59-1,3.09-1.43.17-.14,4.39-3.69,9.11-3.14.12,0,16.42,1.08,17,19.17,0,.45.44,7.4-2.27,17.87l0,.15C73.5,88.79,65.71,99.39,50,100ZM24.33,82.17C27.14,88.24,34.21,98.4,50,98.59,64.88,98,72.33,88,75.46,82a61.1,61.1,0,0,0,2.2-17.36v0c-.54-16.79-15.11-17.79-15.72-17.82-4.14-.48-8,2.78-8.08,2.81-.23.2-2.27,1.85-4.06,1.76a9.46,9.46,0,0,1-4.1-1.74,12.61,12.61,0,0,0-8.63-2.73c-14.57,2-15.13,15.84-15.15,16.43A60.68,60.68,0,0,0,24.33,82.17Z"/><path class="cls-1" d="M40.34,54.1a12.39,12.39,0,0,1,4.12-2.91,12.72,12.72,0,0,1,5-1.15,13.38,13.38,0,0,1,2.6.24,12.06,12.06,0,0,1,2.45.86,11.11,11.11,0,0,1,2.19,1.35,6.33,6.33,0,0,1,.94.85c.3.29.59.6.87.91l-1.1-.6a9.37,9.37,0,0,0-1.08-.58,15.76,15.76,0,0,0-2.23-.9,12.79,12.79,0,0,0-4.62-.71,16.27,16.27,0,0,0-4.66.75A27,27,0,0,0,40.34,54.1Z"/><path class="cls-1" d="M27.21,41.05a.68.68,0,0,1-.57-.31l-3.89-5.53a.73.73,0,0,1-.08-.66.7.7,0,0,1,.5-.43c1-.26,2.18-.54,2.93-.75-.55-.77-1.55-2.2-3.42-4.91a.72.72,0,0,1,.18-1,.71.71,0,0,1,1,.18c1.38,2,3.65,5.26,3.92,5.6a.76.76,0,0,1,.18.63c-.1.48-.12.55-3.44,1.36l3.29,4.69a.71.71,0,0,1-.17,1A.76.76,0,0,1,27.21,41.05Z"/><path class="cls-1" d="M71.28,41.05a.73.73,0,0,1-.4-.13.71.71,0,0,1-.17-1L74,35.24c-3.32-.81-3.33-.88-3.43-1.36a.76.76,0,0,1,.18-.63c.27-.34,2.54-3.6,3.92-5.6a.71.71,0,0,1,1-.18.72.72,0,0,1,.18,1C74,31.17,73,32.6,72.4,33.37c.75.21,1.88.49,2.93.75a.72.72,0,0,1,.5.43.71.71,0,0,1-.09.66l-3.88,5.53A.7.7,0,0,1,71.28,41.05Z"/><path class="cls-1" d="M48.11,28.94a.71.71,0,0,1-.71-.68L47,18.35a.7.7,0,0,1,.29-.6.72.72,0,0,1,.65-.1c1.73.61,3.62,1.25,4.67,1.57-.06-1.21-.15-3.76-.31-9.25A.7.7,0,0,1,53,9.25a.72.72,0,0,1,.72.68c.11,3.62.29,9.51.36,10.06a.75.75,0,0,1-.19.64c-.36.37-.44.44-5.43-1.3l.32,8.88a.7.7,0,0,1-.68.73Z"/></svg>