<svg id="Layer_1" data-name="Layer 1" xmlns="http://www.w3.org/2000/svg" viewBox="0 0 100 100"><defs><style>.cls-1{fill:#54b45d;}</style></defs><title>Artboard 4</title><path class="cls-1" d="M98.89,51.55c.36-1.4,3.67-14.94-3.21-17.3-.14,0-3.36-1.39-8,.43a17.36,17.36,0,0,1-10.16.16c-.15,0-3.62-1-6,.83a4.94,4.94,0,0,0-1.5,2c-15.59-4.3-38.86-1.42-40.68-1.19a4.86,4.86,0,0,0-.79-.78c-2.4-1.85-5.88-.87-6.05-.83a17.22,17.22,0,0,1-10.12-.16c-4.66-1.83-7.89-.48-8-.44C-2.57,36.61.74,50.15,1.11,51.55a4.09,4.09,0,0,0,1.53,2.79,22.76,22.76,0,0,0-.29,3.49c-.17,2.5.95,3.44,1,3.5a3.43,3.43,0,0,0,2.4,1,4.25,4.25,0,0,0,1.72-.38,1.3,1.3,0,0,0,.26-.14,4.21,4.21,0,0,0,1.87,3.36,7.37,7.37,0,0,0,4.09,1.14,9.65,9.65,0,0,0,2.92-.45,3.88,3.88,0,0,0,3.07-3.52,50.57,50.57,0,0,1,2.56-8.94c.15-.35.28-.7.41-1,.49-1.31.81-2.07,1.63-2.29a7.46,7.46,0,0,0,5.4-4.32A3.79,3.79,0,0,0,33,47.57a.67.67,0,0,0,0-1.34,2.47,2.47,0,1,1,2.47-2.47.67.67,0,0,0,1.34,0,3.81,3.81,0,0,0-1.63-3.11c9.25-1.73,22-.5,29.24.46A3.8,3.8,0,0,0,63.08,44a.67.67,0,0,0,1.34,0,2.46,2.46,0,0,1,2.46-2.47,1.87,1.87,0,0,1,.34,0l.21,0a2.47,2.47,0,0,1-.55,4.87.67.67,0,0,0,0,1.34,3.81,3.81,0,0,0,3.39-2.09A7.47,7.47,0,0,0,75.68,50c.83.22,1.15,1,1.64,2.29.12.34.25.69.4,1a50.66,50.66,0,0,1,2.57,9,3.85,3.85,0,0,0,3,3.49,9.85,9.85,0,0,0,3,.47,7.32,7.32,0,0,0,4-1.12,4.27,4.27,0,0,0,1.92-3.39,1.59,1.59,0,0,0,.26.14,4.33,4.33,0,0,0,1.74.38,3.31,3.31,0,0,0,2.33-.92c.12-.1,1.25-1,1.07-3.48a23.83,23.83,0,0,0-.28-3.55A4.18,4.18,0,0,0,98.89,51.55ZM7,60.67l-.07,0a2.45,2.45,0,0,1-2.67-.37s-.7-.64-.57-2.47a25.7,25.7,0,0,1,2-9.49,1,1,0,0,1,.18-.14l0,.06a24.67,24.67,0,0,1,2,9.75c-.09.72-.14,1.31-.16,1.74A1.37,1.37,0,0,1,7,60.67Zm9.24,3.87A7.37,7.37,0,0,1,10.32,64c-.06,0-1.47-.87-1.22-3.32v-.09s0-.22,0-.58a3.9,3.9,0,0,0,.14-.88c0-.3,0-.6,0-.89A26.26,26.26,0,0,1,13,47.83a1.76,1.76,0,0,1,1-.38.81.81,0,0,1,.54.31A25.1,25.1,0,0,1,18.38,62.2,2.55,2.55,0,0,1,16.24,64.54ZM24.1,48.7l-.09,0c-1.57.4-2.08,1.79-2.59,3.13-.11.32-.24.65-.38,1a37.94,37.94,0,0,0-1.54,4.5A26,26,0,0,0,15.61,47a2.15,2.15,0,0,0-1.49-.84,3.18,3.18,0,0,0-2.11.76l-.13.14a27.24,27.24,0,0,0-3,6.59,23.26,23.26,0,0,0-1.8-5.94A1.38,1.38,0,0,0,6,46.88a1.76,1.76,0,0,0-1.39.69l-.1.16a25.61,25.61,0,0,0-1.57,4.94,2.2,2.2,0,0,1-.5-1.1l0-.14,0-.13c0-.13-3.61-13.75,2.41-15.82a10,10,0,0,1,7,.45,18.38,18.38,0,0,0,11,.19s3-.83,4.84.61a3.82,3.82,0,0,1,1.22,1.75l.26,1.05a8.79,8.79,0,0,1,.11,1.75C29.13,48,24.31,48.68,24.1,48.7ZM46.32,38.42c-5.63,0-11.23.49-15.55,2l-.28-1.13a7.07,7.07,0,0,0-.28-1.1l-.11-.45C34.26,37.2,55,35,69.29,38.84l0,1.66A148.87,148.87,0,0,0,46.32,38.42ZM89.64,64c-2.56,1.68-5.86.55-5.94.52a2.51,2.51,0,0,1-2.08-2.36A24.91,24.91,0,0,1,85.43,47.8a.83.83,0,0,1,.56-.35h.08a1.91,1.91,0,0,1,1,.38,26.21,26.21,0,0,1,3.68,10.39c0,.29,0,.57,0,.86a3.92,3.92,0,0,0,.14.9c0,.37,0,.58,0,.59v.09C91.14,63.11,89.74,64,89.64,64Zm6.06-3.65a2.43,2.43,0,0,1-2.64.34l-.07,0a1.37,1.37,0,0,1-.78-.89c0-.43-.06-1-.15-1.74a24.56,24.56,0,0,1,2-9.72l.06-.09a1,1,0,0,1,.17.14,25.62,25.62,0,0,1,2,9.55A2.92,2.92,0,0,1,95.7,60.36Zm1.85-8.82a2.16,2.16,0,0,1-.5,1.14,25.26,25.26,0,0,0-1.57-5l-.09-.16a1.79,1.79,0,0,0-1.4-.69,1.43,1.43,0,0,0-1.11.82,24.55,24.55,0,0,0-1.78,5.91,27.24,27.24,0,0,0-3-6.59L88,46.88a3.15,3.15,0,0,0-2.11-.76,2.16,2.16,0,0,0-1.51.88,26,26,0,0,0-3.87,10.34A35.67,35.67,0,0,0,79,52.84c-.14-.34-.26-.67-.38-1-.5-1.34-1-2.73-2.59-3.13h-.09c-.2,0-5-.68-5.19-7.42h0c0-2.16.48-3.69,1.59-4.55,1.86-1.44,4.82-.62,4.82-.61a18.47,18.47,0,0,0,11-.19,10,10,0,0,1,7.06-.43c6,2,2.41,15.67,2.37,15.8l0,.13Z"/></svg>