<svg id="Layer_1" data-name="Layer 1" xmlns="http://www.w3.org/2000/svg" viewBox="0 0 100 100"><defs><style>.cls-1{fill:#476381;}</style></defs><title>Artboard 3</title><path class="cls-1" d="M95.81,8.5c-.13-.06-3.26-1.36-7.74.4a19.87,19.87,0,0,1-9.88.16c-.65-.18-15.94-4.49-23.2,2.38a7,7,0,0,1-10,0C38,4.5,22.47,8.87,21.78,9.07A16.66,16.66,0,0,1,12,8.91c-4.52-1.77-7.66-.47-7.74-.43-6.72,2.3-3.51,15.44-3.16,16.8A4,4,0,0,0,2.56,28a22.17,22.17,0,0,0-.28,3.39c-.17,2.42.92,3.34,1,3.4a3.32,3.32,0,0,0,2.32.93,4.08,4.08,0,0,0,1.67-.37,1,1,0,0,0,.25-.14,4.13,4.13,0,0,0,1.81,3.26,7.23,7.23,0,0,0,4,1.11,9.09,9.09,0,0,0,2.82-.44,4.28,4.28,0,0,0,1.49-.69,4.89,4.89,0,0,0,2.34,5,10.1,10.1,0,0,0,5.12,1.27,13.91,13.91,0,0,0,3.69-.5,5.05,5.05,0,0,0,3.05-1.89,5.66,5.66,0,0,0,2.52,2.92,13,13,0,0,0,6.58,1.64,17,17,0,0,0,4.76-.66,6,6,0,0,0,4.24-3,5.93,5.93,0,0,0,4.19,3,17.8,17.8,0,0,0,4.83.67,12.9,12.9,0,0,0,6.51-1.61,5.82,5.82,0,0,0,2.67-3,4.93,4.93,0,0,0,3.06,1.94,13.24,13.24,0,0,0,3.75.53A9.91,9.91,0,0,0,80,43.43a4.87,4.87,0,0,0,2.39-5,4.13,4.13,0,0,0,1.43.67,9.54,9.54,0,0,0,2.9.45,7,7,0,0,0,3.9-1.08,4.13,4.13,0,0,0,1.86-3.29,1.23,1.23,0,0,0,.25.14,4.21,4.21,0,0,0,1.69.37,3.23,3.23,0,0,0,2.26-.89c.12-.1,1.21-1,1-3.38A22.54,22.54,0,0,0,97.43,28a4,4,0,0,0,1.49-2.69C99.27,23.92,102.49,10.78,95.81,8.5Zm-89,25.62-.07,0a2.41,2.41,0,0,1-2.59-.36s-.68-.62-.55-2.4a24.94,24.94,0,0,1,1.94-9.21l.17-.13,0,.06a23.9,23.9,0,0,1,2,9.46,17,17,0,0,0-.15,1.69A1.36,1.36,0,0,1,6.79,34.12Zm9,3.75A7.13,7.13,0,0,1,10,37.33c-.06,0-1.43-.85-1.19-3.22V34s0-.21,0-.57A3.92,3.92,0,0,0,9,32.6c0-.29,0-.57,0-.86a25.51,25.51,0,0,1,3.57-10.07,1.66,1.66,0,0,1,1-.37.71.71,0,0,1,.52.3,24.23,24.23,0,0,1,3.72,13.95c0,.14,0,.28-.05.41A2.55,2.55,0,0,1,15.75,37.87Zm15.54,2.27c0,.09-.07,2.13-2.86,2.79-.05,0-4.4,1.35-7.86-.66a3.67,3.67,0,0,1-1.65-3.9v-.1a18.5,18.5,0,0,1,.15-2.19.77.77,0,0,0,0-.15,28.06,28.06,0,0,1,4.82-12.31c.33-.22,1.59-1,2.43-.06a27,27,0,0,1,5,14.3c0,.16,0,.29,0,.41C31.35,38.88,31.34,39.51,31.29,40.14Zm14.05,4.8c-.06,0-5.83,1.79-10.39-.87-.11,0-2.7-1.39-2.26-5.28l0-.11,0-.11s0-.15,0-.4c0-.09,0-.18,0-.27,0-1.65.42-6.4,5.77-14a5.06,5.06,0,0,1,2.82-1.8,2,2,0,0,1,1.58.58c.07.05,6.2,5.39,6.47,15.74,0,.33,0,.68,0,1,0,.55,0,1.1-.05,1.67C49.21,41.25,49.13,44.06,45.34,44.94Zm19.51-.85c-4.52,2.64-10.29.87-10.4.84-3.74-.87-3.82-3.68-3.83-3.85,0-.55,0-1.08,0-1.61,0-.35,0-.69,0-1C50.82,28.1,57,22.75,57,22.71A2.82,2.82,0,0,1,58.72,22a2.69,2.69,0,0,1,.4,0,4.1,4.1,0,0,1,2.28,1.79h0c5.83,9.43,5.83,14.8,5.83,14.85v.08C67.69,42.68,65,44,64.85,44.09Zm14.54-1.8c-3.41,2-7.78.65-7.87.62-2.75-.64-2.82-2.68-2.82-2.81-.67-9.28,4.9-16.47,4.93-16.51a1.34,1.34,0,0,1,1-.47,2.71,2.71,0,0,1,1.41.5A27.86,27.86,0,0,1,80.9,36a.17.17,0,0,1,0,.07,18.21,18.21,0,0,1,.16,2.24v.1A3.69,3.69,0,0,1,79.39,42.29ZM90,37.36c-2.48,1.62-5.68.53-5.76.5a2.46,2.46,0,0,1-2-1.87l-.06-.44a24.21,24.21,0,0,1,3.7-13.92.75.75,0,0,1,.54-.33h.08a1.79,1.79,0,0,1,.94.37A25.51,25.51,0,0,1,91,31.74c0,.28,0,.55,0,.84a4.1,4.1,0,0,0,.13.87c0,.35,0,.56,0,.57v.09C91.41,36.48,90.05,37.3,90,37.36Zm5.88-3.55a2.38,2.38,0,0,1-2.56.34l-.06,0a1.3,1.3,0,0,1-.76-.87c0-.42-.07-1-.15-1.68a23.8,23.8,0,0,1,2-9.43l0-.08a.59.59,0,0,1,.17.12,25.09,25.09,0,0,1,2,9.27C96.54,33.17,95.89,33.76,95.83,33.81ZM97.64,25l0,.13v.1a2,2,0,0,1-.48,1.1,24.6,24.6,0,0,0-1.52-4.8l-.09-.14a1.68,1.68,0,0,0-1.36-.67,1.34,1.34,0,0,0-1.07.79,22.82,22.82,0,0,0-1.73,5.73,26.58,26.58,0,0,0-2.9-6.39l-.13-.14a3,3,0,0,0-2-.73,2.08,2.08,0,0,0-1.47.85,25.26,25.26,0,0,0-3.74,10,29.72,29.72,0,0,0-4-8l-.14-.14c-.86-.66-2.86-1.49-4.3.12a28.1,28.1,0,0,0-4.92,11.53A45.93,45.93,0,0,0,62.51,23.2a5.34,5.34,0,0,0-3.14-2.4,3.89,3.89,0,0,0-3.17.9A21.89,21.89,0,0,0,49.92,33a21.82,21.82,0,0,0-6.27-11.31,3.31,3.31,0,0,0-2.56-.88c-2,.19-3.65,2.22-3.72,2.3l0,0a35.89,35.89,0,0,0-5.27,10.12,28,28,0,0,0-4.75-10.56c-1.42-1.57-3.42-.74-4.28-.08l-.13.14a29.67,29.67,0,0,0-4,8,25.44,25.44,0,0,0-3.76-10A2.09,2.09,0,0,0,13.69,20a3,3,0,0,0-2,.73l-.13.14a26.58,26.58,0,0,0-2.9,6.39,22.47,22.47,0,0,0-1.74-5.76,1.33,1.33,0,0,0-1.06-.76,1.67,1.67,0,0,0-1.35.67l-.09.14a24.68,24.68,0,0,0-1.53,4.8,2.16,2.16,0,0,1-.48-1.07l0-.13,0-.13c0-.13-3.5-13.34,2.34-15.34a9.73,9.73,0,0,1,6.82.44,17.83,17.83,0,0,0,10.66.18c.15,0,15.47-4.36,21.9,2a8.29,8.29,0,0,0,11.83,0c6.71-6.33,21.78-2.09,21.94-2a20.87,20.87,0,0,0,10.66-.2,9.75,9.75,0,0,1,6.85-.41C101.14,11.69,97.68,24.9,97.64,25Z"/><path class="cls-1" d="M95,65l-.57.09a26,26,0,0,0,.06-2.95,3,3,0,0,0-1.76-2.76,3.77,3.77,0,0,0-4,.52l-.14.13a3.79,3.79,0,0,0-2.68-2.06c-.16,0-3.9-1.25-6.94.6a3.73,3.73,0,0,0-1.63,1.93,5.12,5.12,0,0,0-2.83-1.58c-.2-.06-5-1.46-8.84.69a4.55,4.55,0,0,0-2.3,3,5.17,5.17,0,0,0-2.72-1.45c-.2-.06-5-1.46-8.84.69A4.58,4.58,0,0,0,50,63.59a4.35,4.35,0,0,0-1.77-1.73c-3.92-2.18-8.69-.78-8.84-.74a5.27,5.27,0,0,0-2.76,1.47,4.48,4.48,0,0,0-2.26-3c-3.92-2.18-8.68-.78-8.84-.74a5.28,5.28,0,0,0-2.88,1.6,3.71,3.71,0,0,0-1.58-1.91c-3.09-1.87-6.83-.67-6.93-.63A3.93,3.93,0,0,0,11.4,60l-.09-.08a3.8,3.8,0,0,0-4.09-.56,3,3,0,0,0-1.75,2.73,22.45,22.45,0,0,0,.06,3L4.92,65A3.31,3.31,0,0,0,2,65.75a2,2,0,0,0-.46,1.71C5.34,81.63,14.73,86.72,15.47,87.1c7.26,4.69,21.62,5.37,29.34,5.37,2.92,0,4.89-.1,5.16-.11l-.06-1.29c-.24,0-24.13,1.18-33.76-5.07l-.06,0c-.09,0-9.58-5-13.26-18.79A.74.74,0,0,1,3,66.6a2.33,2.33,0,0,1,1.76-.36l.91.15a23.28,23.28,0,0,0,2,6.83A1.36,1.36,0,0,0,8.7,74h.11a1.86,1.86,0,0,0,1.27-.67l.09-.15a24.48,24.48,0,0,0,1.62-5,22.91,22.91,0,0,0,3.38,7.23,2.09,2.09,0,0,0,1.64.78,3.17,3.17,0,0,0,1.88-.7l.13-.14A24.54,24.54,0,0,0,22,68.47a26.22,26.22,0,0,0,4.95,11,2.62,2.62,0,0,0,2,.86,4.16,4.16,0,0,0,2.29-.78l.14-.14a27.55,27.55,0,0,0,4.43-9,26,26,0,0,0,5,11.26l.07.07a3.25,3.25,0,0,0,2.17.93h.2a3,3,0,0,0,2-1l0,0A27.48,27.48,0,0,0,50,71.46a27.28,27.28,0,0,0,4.74,10.18h0a2.86,2.86,0,0,0,1.89,1h.25a3.37,3.37,0,0,0,2.22-1l.07-.07a26.37,26.37,0,0,0,5-11.25,27.22,27.22,0,0,0,4.43,9l.14.14a4.06,4.06,0,0,0,2.27.77,2.69,2.69,0,0,0,2-.88A26.21,26.21,0,0,0,78,68.48a24,24,0,0,0,3.21,6.82l.13.14a3.14,3.14,0,0,0,1.87.7,2.15,2.15,0,0,0,1.68-.81,22.73,22.73,0,0,0,3.35-7.19,24.21,24.21,0,0,0,1.62,5l.1.15a1.81,1.81,0,0,0,1.27.67h.1a1.36,1.36,0,0,0,1.09-.79,23.39,23.39,0,0,0,2-6.8l.85-.13A2.35,2.35,0,0,1,97,66.6a.73.73,0,0,1,.18.52h0C93.48,81,84,85.92,83.9,86l-.06,0c-9.62,6.25-33.51,5.08-33.75,5.07L50,92.36c.27,0,2.24.11,5.17.11,7.72,0,22.08-.68,29.33-5.37.74-.38,10.13-5.48,13.92-19.69A2,2,0,0,0,98,65.75,3.39,3.39,0,0,0,95,65ZM9,72.53a2,2,0,0,0-.18.16.39.39,0,0,1-.08-.09,23.39,23.39,0,0,1-2-10.5c0-.05,0-1.23.93-1.55l.07,0a2.83,2.83,0,0,1,1.13-.24,2.32,2.32,0,0,1,1.58.61A2.38,2.38,0,0,1,11,62.51c0,.17,0,.33,0,.5s0,.18,0,.28A24.2,24.2,0,0,1,9,72.53Zm8.78,2c-.26.19-1.09.69-1.63.07a22.16,22.16,0,0,1-3.84-11.7c0-.14,0-.29,0-.42,0-.38,0-.76,0-1.14,0-.17.09-1.63,2.11-2.13A9.47,9.47,0,0,1,17,58.81a6.62,6.62,0,0,1,3.42.87,2.88,2.88,0,0,1,1.2,3v.09A22.16,22.16,0,0,1,17.81,74.48Zm17.62-10v.1a24.76,24.76,0,0,1-5,14c-.33.21-1.61,1-2.46.06-.06-.07-5.65-6.91-5-15.83,0,0,0-2,2.88-2.63a13.11,13.11,0,0,1,3.36-.43,9.5,9.5,0,0,1,4.57,1.06A3.45,3.45,0,0,1,35.43,64.44ZM49.29,66.7v.1a24.72,24.72,0,0,1-5.05,14,1.64,1.64,0,0,1-2.45,0c-.45-.56-5.59-7.22-4.94-15.79,0,0,0-2,2.88-2.63,0,0,4.44-1.3,7.92.63A3.45,3.45,0,0,1,49.29,66.7Zm8.92,14.1a2,2,0,0,1-1.43.6,1.59,1.59,0,0,1-1-.54A24.77,24.77,0,0,1,50.71,66.8v-.1A3.44,3.44,0,0,1,52.4,63c3.43-1.91,7.83-.63,7.92-.6,2.76.61,2.83,2.54,2.84,2.67C63.8,73.57,58.66,80.24,58.21,80.8Zm13.85-2.25c-.87.92-2.16.18-2.49,0a24.7,24.7,0,0,1-5-14v-.1a3.46,3.46,0,0,1,1.69-3.71c3.43-1.91,7.84-.62,7.93-.6,2.76.61,2.83,2.54,2.83,2.67C77.68,71.65,72.09,78.51,72.06,78.55Zm11.78-4c-.56.65-1.39.16-1.66,0a22.16,22.16,0,0,1-3.82-11.69V62.7a2.88,2.88,0,0,1,1.24-3c2.57-1.56,5.87-.51,6-.48a2.34,2.34,0,0,1,2.07,2.14c0,.36,0,.72,0,1.07,0,.16,0,.34,0,.53A22,22,0,0,1,83.84,74.51Zm7.4-1.94-.07.1a1,1,0,0,1-.21-.14,24.41,24.41,0,0,1-2-9.3v-.75a2.28,2.28,0,0,1,.61-1.62,2.52,2.52,0,0,1,2.68-.34l.06,0c.91.32.93,1.5.93,1.58A23.55,23.55,0,0,1,91.24,72.57Z"/></svg>