<svg id="Layer_1" data-name="Layer 1" xmlns="http://www.w3.org/2000/svg" viewBox="0 0 58 58"><defs><style>.cls-1{fill:none;}.cls-2{fill:#476381;}</style></defs><title>hours-of-operation-icon</title><path class="cls-1" d="M30.66,12.93l-.56,0v1.73a.9.9,0,0,1-1.79,0V12.88l-.56,0A16.33,16.33,0,0,0,12.93,27.71l0,.56h1.77a.89.89,0,0,1,0,1.78H12.88l0,.56A16.29,16.29,0,0,0,27.75,45.48l.56.05V43.71a.9.9,0,0,1,1.79,0v1.82l.56-.05A16.29,16.29,0,0,0,45.48,30.61l.05-.56H43.76a.89.89,0,0,1,0-1.78h1.77l-.05-.56A16.32,16.32,0,0,0,30.66,12.93Zm8.23,8.44-8.32,8.72-.1.19v.15a1.27,1.27,0,0,1-2.54.11v-.13l-7.09-5.35a.78.78,0,0,1-.29-.5A.77.77,0,0,1,20.7,24a.73.73,0,0,1,.59-.3.72.72,0,0,1,.45.15l7.08,5.35.14,0a1.19,1.19,0,0,1,.28,0h.14l8.43-8.83a.7.7,0,0,1,.52-.23h0a.73.73,0,0,1,.74.72A.73.73,0,0,1,38.89,21.37Z"/><path class="cls-1" d="M29,1.85A27.15,27.15,0,1,0,56.15,29,27.18,27.18,0,0,0,29,1.85Zm.21,45.48A18.13,18.13,0,1,1,47.33,29.21,18.14,18.14,0,0,1,29.21,47.33Z"/><path class="cls-2" d="M29,0A29,29,0,1,0,58,29,29,29,0,0,0,29,0Zm0,56.15A27.15,27.15,0,1,1,56.15,29,27.18,27.18,0,0,1,29,56.15Z"/><path class="cls-2" d="M29.21,11.08A18.13,18.13,0,1,0,47.33,29.21,18.15,18.15,0,0,0,29.21,11.08ZM45.53,28.27H43.76a.89.89,0,0,0,0,1.78h1.77l-.05.56A16.29,16.29,0,0,1,30.66,45.48l-.56.05V43.71a.9.9,0,0,0-1.79,0v1.82l-.56-.05A16.29,16.29,0,0,1,12.93,30.61l0-.56h1.77a.89.89,0,0,0,0-1.78H12.88l0-.56A16.33,16.33,0,0,1,27.75,12.93l.56,0v1.73a.9.9,0,0,0,1.79,0V12.88l.56,0A16.32,16.32,0,0,1,45.48,27.71Z"/><path class="cls-2" d="M38.35,20.11h0a.7.7,0,0,0-.52.23l-8.43,8.83h-.14a1.19,1.19,0,0,0-.28,0l-.14,0-7.08-5.35a.72.72,0,0,0-.45-.15.73.73,0,0,0-.59.3.77.77,0,0,0-.15.55.78.78,0,0,0,.29.5l7.09,5.35v.13a1.27,1.27,0,0,0,2.54-.11v-.15l.1-.19,8.32-8.72a.73.73,0,0,0,.2-.54.73.73,0,0,0-.74-.72Z"/></svg>