<svg id="Layer_1" data-name="Layer 1" xmlns="http://www.w3.org/2000/svg" viewBox="0 0 100 100"><defs><style>.cls-1{fill:none;}.cls-2{fill:#fff;}.cls-3{fill:#54b45d;}</style></defs><title>Artboard 7</title><polygon class="cls-1" points="51.19 74.88 51.19 74.88 51.19 74.88 51.19 74.88"/><path class="cls-1" d="M94,83.71s0,0,0,0a34.46,34.46,0,0,0,2.18-12.41c-.28-8.58-7.7-9.1-8-9.12a6.21,6.21,0,0,0-4.07,1.42,4.36,4.36,0,0,1-.49.36,3.09,3.09,0,0,1,.77.33,5.59,5.59,0,0,1,1.15.76,6.65,6.65,0,0,1,.91,1c-.44-.16-.8-.38-1.21-.53a7.56,7.56,0,0,0-1.18-.42,7.16,7.16,0,0,0-2.38-.32,10.15,10.15,0,0,0-2.41.34,19.69,19.69,0,0,0-2.43.86A5.8,5.8,0,0,1,79,64.26a6.79,6.79,0,0,1,1.09-.41l-.43-.28a6.34,6.34,0,0,0-4.37-1.39c-7.41,1-7.71,8.07-7.71,8.37a34.16,34.16,0,0,0,1.92,12,.57.57,0,0,1,.3.44c0,.52.1,1,.16,1.51A11.3,11.3,0,0,1,72.1,85c.1,0,10.87,3.11,21.42.35.15-.56.29-1.06.42-1.45A.47.47,0,0,1,94,83.71Z"/><path class="cls-1" d="M58.33,82.17h0l.46-3.81c-3.74,2.76-9.41,3.25-12.92,3.25l-1.12,0,.47,3.75C48.18,85.39,54.56,85.11,58.33,82.17Z"/><path class="cls-1" d="M58.15,83.68C54.49,86,49.37,86.47,46,86.48a37,37,0,0,0,11.84.27.27.27,0,0,1,0-.09Z"/><path class="cls-1" d="M71.77,86a10.85,10.85,0,0,0-1.66-.37,30.83,30.83,0,0,0,1.39,5.38,24.86,24.86,0,0,0,3.65,6.84c1.06,1.26,1.7.94,1.72.92a.9.9,0,0,1,.21-.08c.79-.11.82-1.89.78-2.36,0-1-.2-3.78-.21-3.81v-.07a3.4,3.4,0,0,1,1.1-2.5,4.38,4.38,0,0,1,3-.91,3.94,3.94,0,0,1,3,1.26,3.15,3.15,0,0,1,.65,2.32,42.33,42.33,0,0,0-.16,4.43,1.7,1.7,0,0,0,1,1.75c.46.16,1.18-.46,1.46-.78l0-.06c2.14-1.89,3.64-5.88,3.65-5.92l0,0a32.38,32.38,0,0,0,1.71-5.45v0C82.56,89.13,71.88,86.07,71.77,86Z"/><path class="cls-1" d="M32.57,83.66h0a34.29,34.29,0,0,0,2.17-12.41c-.28-8.58-7.69-9.1-8-9.12a6.19,6.19,0,0,0-4.07,1.42,3.94,3.94,0,0,1-.44.32,3.89,3.89,0,0,1,.89.37,5.59,5.59,0,0,1,1.15.76,6.65,6.65,0,0,1,.91,1c-.44-.16-.8-.38-1.21-.53a7.56,7.56,0,0,0-1.18-.42,7.16,7.16,0,0,0-2.38-.32,10.15,10.15,0,0,0-2.41.34,19.69,19.69,0,0,0-2.43.86,5.8,5.8,0,0,1,2.12-1.68,6.68,6.68,0,0,1,1-.37l-.49-.32a6.32,6.32,0,0,0-4.36-1.39c-7.42,1-7.71,8.07-7.72,8.37a35,35,0,0,0,2,12.78.5.5,0,0,1,0,.32c.11.57.23,1.13.35,1.66,3.18,1.1,10.76,2.76,23.59,0,.19-.66.37-1.24.52-1.7Z"/><path class="cls-1" d="M42.48,71a.57.57,0,0,1,.43-.19H60.27l.14,0,.09.05s0,0,.06,0,0,0,0,0l0,0h0a19,19,0,0,0,5.11-6.18,35,35,0,0,0,1.26-10v0c-.32-9.55-8.59-10.12-8.94-10.14a6.94,6.94,0,0,0-4.56,1.59,5.07,5.07,0,0,1-.46.33,4.09,4.09,0,0,1,.81.34,6.24,6.24,0,0,1,1.26.83,7.81,7.81,0,0,1,1,1.08c-.47-.18-.86-.44-1.3-.61a9.56,9.56,0,0,0-1.29-.47,8.71,8.71,0,0,0-1.3-.3,9.82,9.82,0,0,0-1.32-.07,10.63,10.63,0,0,0-2.66.39,19.91,19.91,0,0,0-2.65,1A6.48,6.48,0,0,1,47.94,47,6.79,6.79,0,0,1,49,46.56l-.43-.27a7.06,7.06,0,0,0-4.88-1.55c-8.27,1.14-8.6,9-8.61,9.33A35.22,35.22,0,0,0,36.5,64.93a16.31,16.31,0,0,0,5.9,6.92l-.06-.43A.57.57,0,0,1,42.48,71Z"/><path class="cls-1" d="M58.92,76.79l.07,0,.43-3.59c-.25.15-.5.29-.77.42-3.81,2.71-9.57,3.15-12.88,3.15-.65,0-1.2,0-1.63,0l.47,3.75C47.47,80.55,55,80.42,58.92,76.79Z"/><path class="cls-1" d="M58.17,72.55a9.19,9.19,0,0,0,.76-.64H43.55l.08.64a15.87,15.87,0,0,0,14.54,0Z"/><path class="cls-1" d="M49.8,75.38a17.91,17.91,0,0,1-6-1.48l.2,1.66A36.69,36.69,0,0,0,49.8,75.38Z"/><path class="cls-1" d="M8.78,86.64a41.72,41.72,0,0,0,1.46,4.46,21.4,21.4,0,0,0,3.86,6.77c1.08,1.28,1.72,1,1.75.94a.76.76,0,0,1,.21-.08c.79-.11.81-1.89.78-2.36,0-1-.21-3.78-.21-3.81v-.07A3.39,3.39,0,0,1,17.72,90a4.38,4.38,0,0,1,3-.91,3.93,3.93,0,0,1,3,1.26,3.13,3.13,0,0,1,.66,2.32,42.33,42.33,0,0,0-.16,4.43,1.7,1.7,0,0,0,1,1.75c.46.16,1.18-.46,1.45-.78l.06-.06c2.11-1.87,3.27-6,3.28-6,.47-1.34,1-3.22,1.49-4.88,0-.16.09-.32.13-.48C19.74,89,12.38,87.77,8.78,86.64Z"/><polygon class="cls-2" points="51.19 74.88 51.19 74.88 51.19 74.88 51.19 74.88"/><path class="cls-2" d="M67.57,54.8c-.33-10.2-9.47-10.69-9.47-10.69-2.58-.3-5,1.73-5,1.73a4,4,0,0,1-2.06.91,5.29,5.29,0,0,1-2.15-.93,7.57,7.57,0,0,0-5.27-1.65c-8.88,1.23-9.11,9.89-9.11,9.89A35.63,35.63,0,0,0,36,65.13a16.17,16.17,0,0,0,15.22,9.75A17.42,17.42,0,0,0,66.28,65,35.18,35.18,0,0,0,67.57,54.8Z"/><path class="cls-3" d="M99.39,84.33a46.22,46.22,0,0,0-4.6.62c.08-.27.15-.53.22-.74,0,0,0,0,0,0A.53.53,0,0,0,95.1,84a35.13,35.13,0,0,0,2.24-12.84c-.32-9.61-9-10.19-9-10.19a7.28,7.28,0,0,0-4.9,1.68,2.72,2.72,0,0,1-1.47.7,4,4,0,0,1-1.6-.71,7.33,7.33,0,0,0-5.2-1.61c-8.39,1.16-8.71,9.38-8.71,9.45a36.75,36.75,0,0,0,2.3,13.36c0,.19.05.38.07.56A11,11,0,0,0,65,85a38.27,38.27,0,0,1-6,1.55l1.72-14.19a19.64,19.64,0,0,0,6.12-7.11.61.61,0,0,0,0-.12,35.59,35.59,0,0,0,1.31-10.38c-.35-10.59-9.91-11.22-10-11.22-2.79-.33-5.28,1.77-5.38,1.85a3.22,3.22,0,0,1-1.67.79,4.67,4.67,0,0,1-1.82-.8,8.1,8.1,0,0,0-5.71-1.78C34.33,44.89,34,54,34,54a36,36,0,0,0,1.44,11.25l0,.08a17.31,17.31,0,0,0,7.13,7.92L44.17,86.1a25.07,25.07,0,0,1-3.91-1.24,9.68,9.68,0,0,0-6.93.13c.11-.36.21-.69.31-1h0a35.16,35.16,0,0,0,2.24-12.84c-.32-9.61-9-10.19-9.05-10.19a7.31,7.31,0,0,0-4.9,1.68,2.79,2.79,0,0,1-1.47.7,4,4,0,0,1-1.61-.71,7.31,7.31,0,0,0-5.19-1.61C5.26,62.22,5,70.44,5,70.51a35.88,35.88,0,0,0,2,12.86v.08c.08.47.17.92.27,1.36a4.25,4.25,0,0,1-.48-.24.53.53,0,0,0-.27-.08L.59,84.27a.56.56,0,0,0-.59.54.56.56,0,0,0,.55.59l5.7.22a10.7,10.7,0,0,0,1.25.57A39.85,39.85,0,0,0,9.18,91.5a22.09,22.09,0,0,0,4.07,7.12c1.47,1.74,2.68,1.4,3.08,1.22,1.49-.31,1.73-2.37,1.64-3.51,0-.9-.18-3.47-.21-3.82a2.29,2.29,0,0,1,.71-1.66,3.21,3.21,0,0,1,2.17-.64,2.91,2.91,0,0,1,2.22.84,2,2,0,0,1,.41,1.48,38.76,38.76,0,0,0-.16,4.57,2.82,2.82,0,0,0,1.79,2.81,1.63,1.63,0,0,0,.52.09,3.28,3.28,0,0,0,2.14-1.18c2.35-2.1,3.54-6.39,3.58-6.53.47-1.33,1-3.23,1.5-4.91l.3-1.06.26,0,.13,0a8.92,8.92,0,0,1,6.48-.32,34.17,34.17,0,0,0,12.9,2.33,38.17,38.17,0,0,0,12.64-2.15,10.65,10.65,0,0,1,3.59-.5,31,31,0,0,0,1.5,5.86,25.8,25.8,0,0,0,3.83,7.18c1.47,1.74,2.68,1.4,3.08,1.22,1.49-.31,1.74-2.37,1.64-3.51,0-.9-.18-3.47-.2-3.82a2.28,2.28,0,0,1,.7-1.66,3.22,3.22,0,0,1,2.18-.64,2.88,2.88,0,0,1,2.21.84,2.06,2.06,0,0,1,.42,1.48,40.51,40.51,0,0,0-.17,4.57,2.83,2.83,0,0,0,1.79,2.81,1.69,1.69,0,0,0,.53.09,3.25,3.25,0,0,0,2.13-1.18c2.26-2,3.77-5.9,3.92-6.31a32.8,32.8,0,0,0,1.79-5.65c0-.22.11-.44.16-.65l.49-.13a44,44,0,0,1,4.54-.62.58.58,0,0,0,.52-.61A.56.56,0,0,0,99.39,84.33ZM8.1,83.65a.5.5,0,0,0,0-.32,35,35,0,0,1-2-12.78c0-.3.3-7.34,7.72-8.37a6.32,6.32,0,0,1,4.36,1.39l.49.32a6.68,6.68,0,0,0-1,.37,5.8,5.8,0,0,0-2.12,1.68A19.69,19.69,0,0,1,18,65.08a10.15,10.15,0,0,1,2.41-.34,7.16,7.16,0,0,1,2.38.32,7.56,7.56,0,0,1,1.18.42c.41.15.77.37,1.21.53a6.65,6.65,0,0,0-.91-1,5.59,5.59,0,0,0-1.15-.76,3.89,3.89,0,0,0-.89-.37,3.94,3.94,0,0,0,.44-.32,6.19,6.19,0,0,1,4.07-1.42c.32,0,7.73.54,8,9.12a34.29,34.29,0,0,1-2.17,12.41h0c-.15.46-.33,1-.52,1.7-12.83,2.71-20.41,1-23.59,0C8.33,84.78,8.21,84.22,8.1,83.65Zm23.45,3.42c-.48,1.66-1,3.54-1.49,4.88,0,0-1.17,4.18-3.28,6l-.06.06c-.27.32-1,.94-1.45.78a1.7,1.7,0,0,1-1-1.75,42.33,42.33,0,0,1,.16-4.43,3.13,3.13,0,0,0-.66-2.32,3.93,3.93,0,0,0-3-1.26,4.38,4.38,0,0,0-3,.91,3.39,3.39,0,0,0-1.09,2.5v.07s.22,2.86.21,3.81c0,.47,0,2.25-.78,2.36a.76.76,0,0,0-.21.08s-.67.34-1.75-.94a21.4,21.4,0,0,1-3.86-6.77,41.72,41.72,0,0,1-1.46-4.46c3.6,1.13,11,2.39,22.9,0C31.64,86.75,31.59,86.91,31.55,87.07Zm26.78-4.9c-3.77,2.94-10.15,3.22-13.11,3.17l-.47-3.75,1.12,0c3.51,0,9.18-.49,12.92-3.25l-.46,3.81ZM59,76.75l-.07,0C55,80.42,47.47,80.55,44.61,80.45l-.47-3.75c.43,0,1,0,1.63,0,3.31,0,9.07-.44,12.88-3.15.27-.13.52-.27.77-.42ZM42.4,71.85a16.31,16.31,0,0,1-5.9-6.92,35.22,35.22,0,0,1-1.39-10.86c0-.33.34-8.19,8.61-9.33a7.06,7.06,0,0,1,4.88,1.55l.43.27a6.79,6.79,0,0,0-1.09.41,6.48,6.48,0,0,0-2.34,1.8,19.91,19.91,0,0,1,2.65-1,10.63,10.63,0,0,1,2.66-.39,9.82,9.82,0,0,1,1.32.07,8.71,8.71,0,0,1,1.3.3,9.56,9.56,0,0,1,1.29.47c.44.17.83.43,1.3.61a7.81,7.81,0,0,0-1-1.08,6.24,6.24,0,0,0-1.26-.83,4.09,4.09,0,0,0-.81-.34,5.07,5.07,0,0,0,.46-.33,6.94,6.94,0,0,1,4.56-1.59c.35,0,8.62.59,8.94,10.14v0a35,35,0,0,1-1.26,10A19,19,0,0,1,60.64,71h0l0,0,0,0a13.23,13.23,0,0,1-1.34.93c-.36.23-.73.44-1.12.64a15.87,15.87,0,0,1-14.54,0C43.2,72.33,42.79,72.1,42.4,71.85Zm7.4,3.53a36.69,36.69,0,0,1-5.8.18l-.2-1.66A17.91,17.91,0,0,0,49.8,75.38ZM46,86.48c3.42,0,8.54-.48,12.2-2.8l-.36,3a.27.27,0,0,0,0,.09A37,37,0,0,1,46,86.48ZM69.77,83a.57.57,0,0,0-.3-.44,34.16,34.16,0,0,1-1.92-12c0-.3.3-7.34,7.71-8.37a6.34,6.34,0,0,1,4.37,1.39l.43.28a6.79,6.79,0,0,0-1.09.41,5.8,5.8,0,0,0-2.12,1.68,19.69,19.69,0,0,1,2.43-.86,10.15,10.15,0,0,1,2.41-.34,7.16,7.16,0,0,1,2.38.32,7.56,7.56,0,0,1,1.18.42c.41.15.77.37,1.21.53a6.65,6.65,0,0,0-.91-1,5.59,5.59,0,0,0-1.15-.76,3.09,3.09,0,0,0-.77-.33,4.36,4.36,0,0,0,.49-.36,6.21,6.21,0,0,1,4.07-1.42c.32,0,7.74.54,8,9.12A34.46,34.46,0,0,1,94,83.66s0,0,0,0a.47.47,0,0,0-.08.14c-.13.39-.27.89-.42,1.45C83,88.06,72.2,85,72.1,85a11.3,11.3,0,0,0-2.17-.44C69.87,84,69.81,83.52,69.77,83Zm23.42,3.58A32.38,32.38,0,0,1,91.48,92l0,0s-1.51,4-3.65,5.92l0,.06c-.28.32-1,.94-1.46.78a1.7,1.7,0,0,1-1-1.75,42.33,42.33,0,0,1,.16-4.43,3.15,3.15,0,0,0-.65-2.32,3.94,3.94,0,0,0-3-1.26,4.38,4.38,0,0,0-3,.91,3.4,3.4,0,0,0-1.1,2.5v.07s.22,2.86.21,3.81c0,.47,0,2.25-.78,2.36a.9.9,0,0,0-.21.08s-.66.34-1.72-.92a24.86,24.86,0,0,1-3.65-6.84,30.83,30.83,0,0,1-1.39-5.38,10.85,10.85,0,0,1,1.66.37c.11,0,10.79,3.09,21.43.51Z"/><path class="cls-3" d="M60.5,70.87l.1.07s0,0,0,0S60.52,70.88,60.5,70.87Z"/></svg>