<svg id="Layer_1" data-name="Layer 1" xmlns="http://www.w3.org/2000/svg" viewBox="0 0 100 100"><defs><style>.cls-1{fill:#476381;}</style></defs><title>Artboard 6</title><path class="cls-1" d="M46.55,63.09a.14.14,0,0,0,0,.06s0,0,0,0a.43.43,0,0,0,0,.11.49.49,0,0,1,0,.11l0,0,4.8,7.61a.52.52,0,0,0,.13.17.54.54,0,0,0,.38.15.54.54,0,0,0,.34-.12.51.51,0,0,0,.17-.19l4.81-7.62a.06.06,0,0,1,0,0,.42.42,0,0,0,0-.1.5.5,0,0,0,0-.12s0,0,0,0,0,0,0-.06a.43.43,0,0,0,0-.11,1,1,0,0,0,0-.1l-.06-.09-.09-.08s0,0,0,0h0l-.11,0-.11,0H54.17V42.49a.57.57,0,0,0-.57-.56H50.27a.56.56,0,0,0-.57.56V62.58H47.06l-.11,0-.11,0,0,0,0,0a.6.6,0,0,0-.08.08l-.06.09a.36.36,0,0,0,0,.09A.5.5,0,0,0,46.55,63.09Zm4.28-20H53V63.15a.53.53,0,0,0,0,.12.18.18,0,0,0,0,.1.65.65,0,0,0,.1.15l0,0a1,1,0,0,0,.13.09l.05,0a.27.27,0,0,0,.13,0l.09,0h2.14l-3.81,6-3.8-6h2.14a.56.56,0,0,0,.56-.56Z"/><path class="cls-1" d="M99.39,84.33a46.22,46.22,0,0,0-4.6.62c.08-.27.15-.53.22-.74a0,0,0,0,0,0,0A.53.53,0,0,0,95.1,84a35.13,35.13,0,0,0,2.24-12.84c-.32-9.61-9-10.19-9-10.19a7.28,7.28,0,0,0-4.9,1.68,3,3,0,0,1-1.47.7,4,4,0,0,1-1.6-.71,7.33,7.33,0,0,0-5.2-1.61c-8.39,1.16-8.7,9.38-8.71,9.45a36.79,36.79,0,0,0,2.3,13.36c0,.19.05.38.07.56A11,11,0,0,0,65,85a36,36,0,0,1-24.71-.16,9.68,9.68,0,0,0-6.93.13c.11-.36.21-.69.31-1h0a35.16,35.16,0,0,0,2.24-12.84c-.32-9.61-9-10.19-9.05-10.19a7.28,7.28,0,0,0-4.9,1.68,3,3,0,0,1-1.47.7,4,4,0,0,1-1.61-.71,7.31,7.31,0,0,0-5.19-1.61C5.26,62.22,5,70.44,5,70.51a35.88,35.88,0,0,0,2,12.86v.08c.08.47.17.92.27,1.36a4.25,4.25,0,0,1-.48-.24.53.53,0,0,0-.27-.08L.59,84.27a.56.56,0,0,0-.59.54.56.56,0,0,0,.55.59l5.7.22a10.7,10.7,0,0,0,1.25.57A39.85,39.85,0,0,0,9.18,91.5a22.09,22.09,0,0,0,4.07,7.12c1.47,1.74,2.68,1.4,3.08,1.22,1.49-.31,1.73-2.37,1.64-3.51,0-.9-.18-3.47-.21-3.82a2.29,2.29,0,0,1,.71-1.66,3.21,3.21,0,0,1,2.17-.64,2.91,2.91,0,0,1,2.22.84,2,2,0,0,1,.41,1.48,38.76,38.76,0,0,0-.16,4.57,2.82,2.82,0,0,0,1.79,2.81,1.63,1.63,0,0,0,.52.09,3.28,3.28,0,0,0,2.14-1.18c2.35-2.1,3.54-6.39,3.58-6.53.47-1.33,1-3.23,1.49-4.91.11-.36.21-.71.31-1.06l.26,0,.13,0a8.92,8.92,0,0,1,6.48-.32,34.17,34.17,0,0,0,12.9,2.33,38.17,38.17,0,0,0,12.64-2.15,10.65,10.65,0,0,1,3.59-.5,31,31,0,0,0,1.5,5.86,25.8,25.8,0,0,0,3.83,7.18c1.47,1.74,2.68,1.4,3.08,1.22,1.49-.31,1.74-2.37,1.64-3.51,0-.9-.18-3.47-.2-3.82a2.28,2.28,0,0,1,.7-1.66,3.22,3.22,0,0,1,2.18-.64,2.88,2.88,0,0,1,2.21.84,2.06,2.06,0,0,1,.42,1.48,43.73,43.73,0,0,0-.17,4.57,2.83,2.83,0,0,0,1.79,2.81,1.69,1.69,0,0,0,.53.09,3.23,3.23,0,0,0,2.13-1.18c2.26-2,3.77-5.9,3.92-6.31a32.8,32.8,0,0,0,1.79-5.65c0-.22.11-.44.16-.65l.49-.13a44,44,0,0,1,4.54-.62.58.58,0,0,0,.52-.61A.56.56,0,0,0,99.39,84.33ZM8.1,83.65a.5.5,0,0,0,0-.32,35,35,0,0,1-2-12.78c0-.3.3-7.34,7.72-8.37a6.36,6.36,0,0,1,4.36,1.39l.49.32a6.68,6.68,0,0,0-1,.37,5.8,5.8,0,0,0-2.12,1.68A19.69,19.69,0,0,1,18,65.08a10.15,10.15,0,0,1,2.41-.34,7.16,7.16,0,0,1,2.38.32,8.69,8.69,0,0,1,1.18.41c.41.16.77.38,1.21.54a6.65,6.65,0,0,0-.91-1,5.59,5.59,0,0,0-1.15-.76,3.89,3.89,0,0,0-.89-.37,3.94,3.94,0,0,0,.44-.32,6.16,6.16,0,0,1,4.07-1.42c.32,0,7.73.54,8,9.12a34.24,34.24,0,0,1-2.17,12.41h0c-.15.46-.33,1-.52,1.7-12.83,2.71-20.42,1-23.59,0C8.33,84.78,8.21,84.22,8.1,83.65Zm23.44,3.42c-.47,1.66-1,3.54-1.48,4.88,0,0-1.17,4.18-3.28,6l-.06.06c-.27.32-1,.94-1.45.78a1.7,1.7,0,0,1-1-1.75,42.33,42.33,0,0,1,.16-4.43,3.13,3.13,0,0,0-.66-2.32,3.93,3.93,0,0,0-3-1.26,4.38,4.38,0,0,0-3,.91,3.39,3.39,0,0,0-1.09,2.5v.07s.22,2.86.21,3.81c0,.47,0,2.25-.78,2.36a.76.76,0,0,0-.21.08s-.67.34-1.75-.94a21.4,21.4,0,0,1-3.86-6.77,39.15,39.15,0,0,1-1.46-4.46c3.6,1.13,11,2.39,22.9,0C31.64,86.75,31.59,86.91,31.54,87.07Zm36-16.52c0-.3.3-7.34,7.71-8.37a6.35,6.35,0,0,1,4.36,1.39l.44.28a6.79,6.79,0,0,0-1.09.41,5.8,5.8,0,0,0-2.12,1.68,19.69,19.69,0,0,1,2.43-.86,10.15,10.15,0,0,1,2.41-.34,7.16,7.16,0,0,1,2.38.32,8.69,8.69,0,0,1,1.18.41c.41.16.77.38,1.21.54a6.65,6.65,0,0,0-.91-1,5.59,5.59,0,0,0-1.15-.76,3.09,3.09,0,0,0-.77-.33,4.36,4.36,0,0,0,.49-.36,6.16,6.16,0,0,1,4.07-1.42c.32,0,7.74.54,8,9.12A34.46,34.46,0,0,1,94,83.66s0,0,0,0a.47.47,0,0,0-.08.14c-.13.39-.27.89-.42,1.45C83,88.06,72.2,85,72.1,85a11.3,11.3,0,0,0-2.17-.44c-.06-.49-.12-1-.16-1.51a.57.57,0,0,0-.3-.44A34.2,34.2,0,0,1,67.55,70.55Zm25.64,16A32.38,32.38,0,0,1,91.48,92l0,0s-1.51,4-3.65,5.92l0,.06c-.28.32-1,.94-1.46.78a1.7,1.7,0,0,1-1-1.75,42.33,42.33,0,0,1,.16-4.43,3.15,3.15,0,0,0-.65-2.32,3.94,3.94,0,0,0-3-1.26,4.38,4.38,0,0,0-3,.91,3.4,3.4,0,0,0-1.1,2.5v.07s.22,2.86.21,3.81c0,.47,0,2.25-.78,2.36a.9.9,0,0,0-.21.08s-.66.34-1.72-.92a24.86,24.86,0,0,1-3.65-6.84,30.83,30.83,0,0,1-1.39-5.38,10.85,10.85,0,0,1,1.66.37c.11,0,10.79,3.09,21.43.51Z"/></svg>