<svg id="Layer_1" data-name="Layer 1" xmlns="http://www.w3.org/2000/svg" viewBox="0 0 168 64"><defs><style>.cls-1{fill:#54b45d;}.cls-2{fill:#476381;}</style></defs><title>kiss-dental-logo</title><path class="cls-1" d="M45.7,11.91A71.4,71.4,0,0,1,29.27,8.26C22,5.44,18.31,1.69,11.84,2,4.62,2.25-.31,6,.06,14.9.44,24,18.15,53.44,19.81,58.71c0,0,1.55,3.71,3.71,3.32,2.43-.11,2.65-3.27,2.65-3.27s2-20.8,9.07-13c0,0-1.05-4.75-5.92-4.81s-7.8,8-7.8,8.69c0,0-15.4-23.46-15.82-34.41,0,0-.33-7.8,7.39-7.72S28.77,16.22,45.7,11.91Z"/><path class="cls-2" d="M20.38,11.91A71.4,71.4,0,0,0,36.81,8.26c7.3-2.82,11-6.57,17.43-6.3C61.45,2.25,66.39,6,66,14.9,65.64,24,47.93,53.45,46.27,58.71c0,0-1.55,3.71-3.71,3.32-2.43-.11-2.65-3.26-2.65-3.26s-2-20.8-9.07-13c0,0,1.05-4.76,5.91-4.81s7.8,8,7.8,8.68c0,0,15.41-23.45,15.83-34.41,0,0,.33-7.8-7.39-7.71S37.31,16.23,20.38,11.91Z"/><path class="cls-1" d="M86.64,38.75l-5.7-9.94L77,33.53v5.22H75V20.07h2V30.8l8.71-10.73h2.44l-5.88,7.21L89,38.75Z"/><path class="cls-1" d="M92.07,38.75V20.07h2V38.75Z"/><path class="cls-1" d="M104.27,38.91a8.12,8.12,0,0,1-6.4-2.47l1.36-1.36a6.42,6.42,0,0,0,5.09,2.05c2.73,0,4.41-1.29,4.41-3.47a3,3,0,0,0-.89-2.33,4,4,0,0,0-2.44-.9l-2.18-.34a6.8,6.8,0,0,1-3.44-1.41,4.44,4.44,0,0,1-1.42-3.49c0-3.18,2.29-5.28,6-5.28A7.48,7.48,0,0,1,109.91,22l-1.29,1.28a5.86,5.86,0,0,0-4.35-1.6c-2.49,0-3.94,1.39-3.94,3.47a2.68,2.68,0,0,0,.84,2.15,5.4,5.4,0,0,0,2.52,1l2,.32a6,6,0,0,1,3.41,1.31,4.67,4.67,0,0,1,1.57,3.7C110.72,36.89,108.15,38.91,104.27,38.91Z"/><path class="cls-1" d="M119.28,38.91a8.16,8.16,0,0,1-6.41-2.47l1.37-1.36a6.42,6.42,0,0,0,5.09,2.05c2.73,0,4.41-1.29,4.41-3.47a3,3,0,0,0-.89-2.33,4,4,0,0,0-2.44-.9l-2.18-.34a6.8,6.8,0,0,1-3.44-1.41,4.44,4.44,0,0,1-1.42-3.49c0-3.18,2.29-5.28,6-5.28A7.48,7.48,0,0,1,124.92,22l-1.29,1.28a5.88,5.88,0,0,0-4.35-1.6c-2.5,0-3.94,1.39-3.94,3.47a2.68,2.68,0,0,0,.84,2.15,5.4,5.4,0,0,0,2.52,1l2,.32a6,6,0,0,1,3.41,1.31,4.67,4.67,0,0,1,1.57,3.7C125.73,36.89,123.16,38.91,119.28,38.91Z"/><path class="cls-2" d="M86.14,58.67a6.52,6.52,0,0,1-4.72,1.73H75V41.72h6.41a6.52,6.52,0,0,1,4.72,1.73c1.94,1.94,1.84,4.8,1.84,7.4S88.08,56.73,86.14,58.67Zm-1.39-13.8a4.86,4.86,0,0,0-3.68-1.37H77V58.62h4.06a4.86,4.86,0,0,0,3.68-1.37C86,55.92,86,53.13,86,50.85S86,46.21,84.75,44.87Z"/><path class="cls-2" d="M92.67,60.4V41.72h11.6V43.5h-9.6v6.59h8.18v1.78H94.67v6.75h9.6V60.4Z"/><path class="cls-2" d="M120.33,60.4l-9.92-15v15h-2V41.72h1.89l9.92,14.93V41.72h2V60.4Z"/><path class="cls-2" d="M133.1,43.5V60.4h-2V43.5H125.7V41.72h12.81V43.5Z"/><path class="cls-2" d="M151.31,60.4l-1.49-4.22h-8.16l-1.5,4.22H138l6.87-18.68h1.68l6.85,18.68Zm-5.53-15.82-3.52,9.87h7Z"/><path class="cls-2" d="M156.45,60.4V41.72h2v16.9H168V60.4Z"/><path class="cls-2" d="M53.9,31.37a42,42,0,0,0,4.15-9.63s-9,14-33.91,1.42C24.14,23.16,34.91,34.8,53.9,31.37Z"/></svg>