<svg id="Layer_1" data-name="Layer 1" xmlns="http://www.w3.org/2000/svg" viewBox="0 0 58 58"><defs><style>.cls-1{fill:none;}.cls-2{fill:#476381;}</style></defs><title>location-icon</title><path class="cls-1" d="M28.88,16.88a6.69,6.69,0,1,0,6.68,6.69A6.7,6.7,0,0,0,28.88,16.88Z"/><path class="cls-1" d="M28.88,11.86A11.72,11.72,0,0,0,17.17,23.57c0,7.44,9.39,18.29,11.71,20.86C31.2,41.86,40.58,31,40.58,23.57A11.72,11.72,0,0,0,28.88,11.86Zm0,19.84A8.14,8.14,0,1,1,37,23.57,8.15,8.15,0,0,1,28.88,31.7Z"/><path class="cls-1" d="M29,1.85A27.15,27.15,0,1,0,56.15,29,27.18,27.18,0,0,0,29,1.85Zm5.25,47H23.51a.83.83,0,1,1,0-1.65H34.25a.83.83,0,1,1,0,1.65Zm-4.78-2.64a.77.77,0,0,1-.59.26.81.81,0,0,1-.6-.26c-.52-.54-12.76-13.47-12.76-22.65a13.36,13.36,0,0,1,26.72,0C42.24,32.75,30,45.67,29.47,46.22Z"/><path class="cls-2" d="M29,0A29,29,0,1,0,58,29,29,29,0,0,0,29,0Zm0,56.15A27.15,27.15,0,1,1,56.15,29,27.18,27.18,0,0,1,29,56.15Z"/><path class="cls-2" d="M28.88,10.21A13.37,13.37,0,0,0,15.52,23.57c0,9.18,12.24,22.11,12.76,22.65a.81.81,0,0,0,.6.26.77.77,0,0,0,.59-.26c.53-.55,12.77-13.47,12.77-22.65A13.38,13.38,0,0,0,28.88,10.21Zm11.7,13.36c0,7.44-9.38,18.29-11.7,20.86C26.56,41.86,17.17,31,17.17,23.57a11.71,11.71,0,1,1,23.41,0Z"/><path class="cls-2" d="M34.25,47.21H23.51a.83.83,0,1,0,0,1.65H34.25a.83.83,0,1,0,0-1.65Z"/><path class="cls-2" d="M28.88,15.43A8.14,8.14,0,1,0,37,23.57,8.15,8.15,0,0,0,28.88,15.43Zm6.68,8.14a6.69,6.69,0,1,1-6.68-6.69A6.69,6.69,0,0,1,35.56,23.57Z"/></svg>