<svg id="Layer_1" data-name="Layer 1" xmlns="http://www.w3.org/2000/svg" viewBox="0 0 58 58"><defs><style>.cls-1{fill:#476381;}</style></defs><title>mail-icon</title><path class="cls-1" d="M29,58A29,29,0,1,1,58,29,29,29,0,0,1,29,58ZM29,1.85A27.15,27.15,0,1,0,56.15,29,27.18,27.18,0,0,0,29,1.85Z"/><path class="cls-1" d="M45.79,19.29H35.91a6.95,6.95,0,0,0-13.82,0H12.21a.7.7,0,0,0-.7.7V40.55a.71.71,0,0,0,.7.71H45.79a.71.71,0,0,0,.7-.71V20A.7.7,0,0,0,45.79,19.29ZM12.92,21.45,24.3,30.53,12.92,39.14ZM29,26.93a7,7,0,0,0,6.91-6.24h7.87L29,32.48,14.22,20.69h7.87A7,7,0,0,0,29,26.93Zm-3.57,4.5,3.13,2.5a.72.72,0,0,0,.88,0l3.13-2.5,11.12,8.42H14.31Zm8.27-.9,11.38-9.08V39.14ZM29,14.45A5.54,5.54,0,1,1,23.47,20,5.54,5.54,0,0,1,29,14.45Z"/><path class="cls-1" d="M27.29,22.67a.69.69,0,0,0,1,0l4.37-4.37a.7.7,0,1,0-1-1l-3.87,3.87-1.45-1.44a.7.7,0,1,0-1,1Z"/></svg>