<svg id="Layer_1" data-name="Layer 1" xmlns="http://www.w3.org/2000/svg" viewBox="0 0 124 117"><defs><style>.cls-1{fill:none;}.cls-2{fill:#476381;}</style></defs><title>menu-icon</title><path class="cls-1" d="M84.86,10.84a9.46,9.46,0,0,1,.62-3.28,56.27,56.27,0,1,0,15.16,10.31,9.38,9.38,0,0,1-6.3,2.45A9.49,9.49,0,0,1,84.86,10.84Zm.25,72.82c-.08.25-3.34,8.93-8.29,13.31-.15.19-2.13,2.43-4.44,2.43a3.31,3.31,0,0,1-1.11-.18,6,6,0,0,1-3.78-5.94,85.6,85.6,0,0,1,.35-9.63A4.37,4.37,0,0,0,67,80.52c-.91-1.08-2.48-1.68-4.67-1.77a7,7,0,0,0-4.59,1.36,4.83,4.83,0,0,0-1.49,3.57c0,.1.47,6,.44,8,.2,2.41-.32,6.75-3.47,7.4-.83.38-3.39,1.09-6.48-2.58a46.39,46.39,0,0,1-8.59-15c-.35-.67-10-20-9-38.46,0-.14.67-17.63,18.53-20.1a15.62,15.62,0,0,1,11,3.4,8.68,8.68,0,0,0,3.46,1.54c1,.08,2.42-.89,3.14-1.49.19-.16,5-4.21,10.42-3.57.11,0,18.58,1.22,19.25,21.68C95,45.13,96,62,85.11,83.66Z"/><path class="cls-1" d="M75.46,25.18c-4.46-.51-8.63,3-8.67,3a10.06,10.06,0,0,1-1,.74c.21.1.43.19.63.3a8.13,8.13,0,0,1,3.15,3A35.52,35.52,0,0,0,65.68,31,12.35,12.35,0,0,0,62,30.55a25.43,25.43,0,0,0-7.64,1.6,8.4,8.4,0,0,1,3.27-2.87A6.13,6.13,0,0,1,58.4,29a12.9,12.9,0,0,1-1.17-.75l-.07,0a13.45,13.45,0,0,0-9.23-2.9c-15.8,2.19-16.42,17.19-16.44,17.83C30.57,61,40.22,80.35,40.32,80.55A45.3,45.3,0,0,0,48.5,94.9c2.29,2.71,3.63,2,3.69,2l.44-.17c1.68-.25,1.72-4,1.64-5,0-2-.43-8-.43-8a7.82,7.82,0,0,1,1.24-4.18,37.45,37.45,0,0,0-4.14,1.64,12.9,12.9,0,0,1,4.88-3.84A14.38,14.38,0,0,1,62,76a13.94,13.94,0,0,1,6.21,1.43,14.44,14.44,0,0,1,4.91,3.79c-1.34-.52-2.59-1-3.85-1.48a6.82,6.82,0,0,1,.91,4.22,89.26,89.26,0,0,0-.33,9.35A3.64,3.64,0,0,0,72,97c1,.33,2.5-1,3.09-1.66,4.61-4.1,7.77-12.5,7.8-12.59,10.67-21.19,9.63-37.94,9.62-38.11C91.94,26.32,76.14,25.21,75.46,25.18Z"/><path class="cls-2" d="M75.67,22.8c-5.41-.64-10.23,3.41-10.42,3.57-.72.6-2.16,1.57-3.14,1.49a8.68,8.68,0,0,1-3.46-1.54,15.62,15.62,0,0,0-11-3.4C29.77,25.39,29.11,42.88,29.1,43c-1,18.5,8.67,37.79,9,38.46a46.39,46.39,0,0,0,8.59,15c3.09,3.67,5.65,3,6.48,2.58,3.15-.65,3.67-5,3.47-7.4,0-2-.42-7.88-.44-8a4.83,4.83,0,0,1,1.49-3.57,7,7,0,0,1,4.59-1.36c2.19.09,3.76.69,4.67,1.77a4.37,4.37,0,0,1,.87,3.13,85.6,85.6,0,0,0-.35,9.63,6,6,0,0,0,3.78,5.94,3.31,3.31,0,0,0,1.11.18c2.31,0,4.29-2.24,4.44-2.43,5-4.38,8.21-13.06,8.29-13.31C96,62,95,45.13,94.92,44.48,94.25,24,75.78,22.8,75.67,22.8Zm7.25,59.91c0,.09-3.19,8.49-7.8,12.59C74.53,96,73,97.29,72,97a3.64,3.64,0,0,1-2.15-3.69,89.26,89.26,0,0,1,.33-9.35,6.82,6.82,0,0,0-.91-4.22c1.26.45,2.51,1,3.85,1.48a14.44,14.44,0,0,0-4.91-3.79A13.94,13.94,0,0,0,62,76a14.38,14.38,0,0,0-6.21,1.38,12.9,12.9,0,0,0-4.88,3.84,37.45,37.45,0,0,1,4.14-1.64,7.82,7.82,0,0,0-1.24,4.18s.46,6,.43,8c.08,1,0,4.74-1.64,5l-.44.17c-.06,0-1.4.71-3.69-2a45.3,45.3,0,0,1-8.18-14.35c-.1-.2-9.75-19.55-8.83-37.43,0-.64.64-15.64,16.44-17.83a13.45,13.45,0,0,1,9.23,2.9l.07,0A12.9,12.9,0,0,0,58.4,29a6.13,6.13,0,0,0-.75.29,8.4,8.4,0,0,0-3.27,2.87A25.43,25.43,0,0,1,62,30.55a12.35,12.35,0,0,1,3.66.43,35.52,35.52,0,0,1,3.85,1.29,8.13,8.13,0,0,0-3.15-3c-.2-.11-.42-.2-.63-.3a10.06,10.06,0,0,0,1-.74s4.21-3.53,8.67-3c.68,0,16.48,1.14,17.08,19.42C92.55,44.77,93.59,61.52,82.92,82.71Z"/><path class="cls-2" d="M102.23,16.09A9.47,9.47,0,0,0,86.58,5.43a58.72,58.72,0,1,0,15.65,10.66Zm-.8-5.25a7.11,7.11,0,0,1-1,3.6,7.31,7.31,0,0,1-1.55,1.82,7.06,7.06,0,0,1-11.62-5.42,6.82,6.82,0,0,1,.4-2.22,6.9,6.9,0,0,1,1.12-2.11,7.07,7.07,0,0,1,12.66,4.33ZM62,114.61a56.11,56.11,0,1,1,23.48-107,9.43,9.43,0,0,0,15.16,10.31A56.07,56.07,0,0,1,62,114.61Z"/></svg>