<svg id="Layer_1" data-name="Layer 1" xmlns="http://www.w3.org/2000/svg" viewBox="0 0 58 58"><defs><style>.cls-1{fill:#476381;}</style></defs><title>phone-icon</title><path class="cls-1" d="M41,31l-.81-.16a5.59,5.59,0,0,0-5.49,2.06l-1.25,1.63a1,1,0,0,1-1.36.25,27.52,27.52,0,0,1-8.92-8.91,1,1,0,0,1,.26-1.37l1.62-1.25a5.49,5.49,0,0,0,2.06-5.48L27,17a6.86,6.86,0,0,0-7.74-5.45l-2,.29a7.43,7.43,0,0,0-5.11,3.26,7.31,7.31,0,0,0-1,5.89A36.39,36.39,0,0,0,37.11,46.83a7.79,7.79,0,0,0,1.9.24,7.1,7.1,0,0,0,3.93-1.18,7.49,7.49,0,0,0,3.23-5.16l.29-2h0A6.86,6.86,0,0,0,41,31Zm3.62,7.48-.3,2a5.64,5.64,0,0,1-2.42,3.89,5.37,5.37,0,0,1-4.34.69A34.55,34.55,0,0,1,13,20.48a5.4,5.4,0,0,1,.73-4.4,5.58,5.58,0,0,1,3.84-2.45l2-.29a4.71,4.71,0,0,1,.74-.06,5,5,0,0,1,4.92,4l.16.81A3.69,3.69,0,0,1,24,21.79L22.32,23a2.88,2.88,0,0,0-.7,3.81,29.23,29.23,0,0,0,9.52,9.51,2.87,2.87,0,0,0,3.8-.7L36.18,34a3.74,3.74,0,0,1,3.66-1.38l.81.16A5,5,0,0,1,44.64,38.48Z"/><path class="cls-1" d="M47.91,17.3A25,25,0,0,0,33.33,6.77a.93.93,0,1,0-.47,1.79,23.11,23.11,0,0,1,13.5,9.75.94.94,0,0,0,.78.42.93.93,0,0,0,.77-1.43Z"/><path class="cls-1" d="M29,58A29,29,0,1,1,58,29,29,29,0,0,1,29,58ZM29,1.85A27.15,27.15,0,1,0,56.15,29,27.18,27.18,0,0,0,29,1.85Z"/></svg>