<svg id="Layer_1" data-name="Layer 1" xmlns="http://www.w3.org/2000/svg" viewBox="0 0 100 100"><defs><style>.cls-1{fill:#dbdbdb;}.cls-2{fill:#476381;}</style></defs><title>Artboard 4</title><path class="cls-1" d="M50,39.78a13,13,0,0,0,4.6-.91C69.21,30.76,74,40.74,74,40.74,83.2,55.07,63.37,89.93,63.37,89.93a1.16,1.16,0,0,1-1.32.54c-.77-.22-.66-1.48-.66-1.48.14-5.78-.1-8.54-.1-8.54a9.45,9.45,0,0,0-9-9.42l-2,0h-.68l-2,0a9.45,9.45,0,0,0-9,9.42A84.27,84.27,0,0,0,38.47,89s.11,1.26-.66,1.48a1.14,1.14,0,0,1-1.31-.54S16.66,55.07,25.88,40.74c0,0,4.77-10,19.42-1.87A11,11,0,0,0,50,39.78Z"/><path class="cls-2" d="M84,42.45c-.68-21-19.59-22.25-19.74-22.25-5.45-.65-10.33,3.46-10.53,3.63-.59.49-2.4,1.74-3.69,1.69a9.72,9.72,0,0,1-4-1.73,15.83,15.83,0,0,0-11.16-3.47c-18.31,2.54-19,20.45-19,20.61-1,18.89,8.94,39.21,9.46,40.27a48.63,48.63,0,0,0,8.91,15.55c3.14,3.72,5.59,2.85,6.22,2.53,3.73-.7,3.27-7,3.25-7.24,0-2-.41-7.85-.46-8.46A5.58,5.58,0,0,1,45,79.47a7.9,7.9,0,0,1,5.22-1.57c2.48.11,4.27.81,5.33,2.08a5.13,5.13,0,0,1,1,3.68,94.88,94.88,0,0,0-.37,10.11,5.72,5.72,0,0,0,3.59,5.69,3,3,0,0,0,1,.15c2.11,0,4.05-2.1,4.34-2.43,5-4.43,8.3-13.1,8.58-13.83C85.14,60.69,84,42.6,84,42.45ZM72.49,82.76l0,.07c0,.09-3.41,9.07-8.25,13.35l-.06.06c-.6.7-2.44,2.39-3.86,1.91a4.34,4.34,0,0,1-2.65-4.39A93.12,93.12,0,0,1,58,83.82a6.48,6.48,0,0,0-1.34-4.7c-1.31-1.6-3.45-2.47-6.32-2.59,0,0-.21,0-.51,0a8.87,8.87,0,0,0-5.69,1.92,7,7,0,0,0-2.24,5.13v.09c0,.06.49,6.37.46,8.43,0,.06.37,5.48-2.2,5.86L40,98l-.12.07c-.08,0-1.83,1.07-4.58-2.2A47.67,47.67,0,0,1,26.65,80.7l0-.08c-.1-.21-10.32-20.69-9.34-39.63,0-.17.64-16.93,17.79-19.3a14.67,14.67,0,0,1,10.13,3.18l0,0a16.78,16.78,0,0,0,2,1.18,16,16,0,0,0-2.37.56,15,15,0,0,0-4.51,2.25,39.69,39.69,0,0,1,4.77-1.21,28.68,28.68,0,0,1,4.79-.47,21.79,21.79,0,0,1,4.76.42A32.11,32.11,0,0,1,59.39,29,13.53,13.53,0,0,0,55,26.6l-.61-.21c-.2-.06-.41-.09-.62-.14l-.9-.18a11.75,11.75,0,0,0,1.77-1.19s4.64-3.89,9.52-3.31c.73,0,17.84,1.21,18.49,21C82.61,42.7,83.73,60.45,72.49,82.76Z"/><path class="cls-2" d="M68.61,35.56c-4-1.28-8.83-.37-14.32,2.68a12.64,12.64,0,0,1-4.34.85,10.44,10.44,0,0,1-4.32-.83c-5.55-3.07-10.39-4-14.38-2.7a10.37,10.37,0,0,0-6,4.84C16,54.93,35.08,88.83,35.9,90.27l.05.07a1.88,1.88,0,0,0,1.53.87,1.72,1.72,0,0,0,.52-.08c1-.3,1.21-1.52,1.16-2.15-.14-5.67.1-8.44.1-8.47v-.07a8.7,8.7,0,0,1,8.3-8.72l2,0,2.66,0a8.71,8.71,0,0,1,8.35,8.72v.07s.24,2.8.11,8.42c-.06.68.11,1.9,1.15,2.2a1.81,1.81,0,0,0,2.06-.79l0-.07c.81-1.44,19.9-35.34,10.61-49.87A10.37,10.37,0,0,0,68.61,35.56Zm-5.82,54c-.27.34-.42.3-.55.26s-.19-.41-.16-.8c.13-5.52-.08-8.27-.11-8.59a10.17,10.17,0,0,0-9.64-10.07l-2.06,0-2.79,0c-9.27.93-9.58,9.39-9.59,10.07a85.52,85.52,0,0,0-.1,8.63c0,.35-.08.74-.17.76s-.28.08-.55-.26c-.76-1.36-19.36-34.83-10.61-48.44l0-.08a9.1,9.1,0,0,1,5.2-4.17c3.61-1.14,8.08-.27,13.29,2.62a11.63,11.63,0,0,0,5,1h0a13.58,13.58,0,0,0,4.92-1c5.2-2.88,9.66-3.75,13.28-2.61A9.05,9.05,0,0,1,73.36,41l0,.08C82.15,54.72,63.56,88.19,62.79,89.55Z"/></svg>