<svg id="Layer_1" data-name="Layer 1" xmlns="http://www.w3.org/2000/svg" viewBox="0 0 100 100"><defs><style>.cls-1{fill:#54b45d;}</style></defs><title>Artboard 5</title><path class="cls-1" d="M84.13,42.7c-.69-21.05-19.64-22.3-19.79-22.3a10.09,10.09,0,0,0-1.9,0L62.8,20l.28-.29q3.77-3.36,8-6.62a3.3,3.3,0,0,0,4.55-.1l7.05-7a3.31,3.31,0,0,0,0-4.68L82.36,1a3.31,3.31,0,0,0-4.68,0l-7,7a3.28,3.28,0,0,0-.47,4.07q-5.57,4.28-10.32,8.75A18,18,0,0,0,53.79,24c-.59.49-2.4,1.75-3.7,1.7a9.77,9.77,0,0,1-4-1.74,15.87,15.87,0,0,0-11.19-3.48c-18.34,2.54-19,20.5-19,20.66-1,18.93,9,39.3,9.49,40.36a48.31,48.31,0,0,0,8.93,15.59c3.14,3.73,5.6,2.86,6.23,2.53,3.74-.7,3.27-7,3.25-7.25,0-2-.41-7.87-.46-8.48a5.63,5.63,0,0,1,1.77-4.13,8,8,0,0,1,5.23-1.56c2.49.1,4.28.8,5.34,2.08a5.18,5.18,0,0,1,1,3.69,89,89,0,0,0-.37,10.13A5.72,5.72,0,0,0,60,99.84a3,3,0,0,0,1,.16c2.12,0,4.06-2.11,4.36-2.45,5-4.43,8.32-13.12,8.59-13.85C85.3,61,84.14,42.85,84.13,42.7Zm-22,38.06a10.2,10.2,0,0,0-9.67-10.1l-2.06,0-2.8,0c-9.29.93-9.6,9.41-9.61,10.09a85.82,85.82,0,0,0-.1,8.65,1.14,1.14,0,0,1-.16.75A56.25,56.25,0,0,1,36,79.58a54.42,54.42,0,0,1-.17-11.27,61.42,61.42,0,0,1,6.15-21.63A75.86,75.86,0,0,1,45.71,40a12.49,12.49,0,0,0,4.33.72h0a13.4,13.4,0,0,0,4.94-1c5.2-2.88,9.68-3.75,13.3-2.61a9.14,9.14,0,0,1,5.21,4.18l0,.08C82.31,55,63.67,88.55,62.9,89.91c-.27.34-.42.3-.55.26s-.19-.41-.16-.8C62.32,83.84,62.11,81.08,62.08,80.76ZM43.82,40a.66.66,0,0,0-.07.56c-1.09,1.81-2.11,3.65-3,5.54a63,63,0,0,0-6.29,22.12,58,58,0,0,0,.17,11.56,47.32,47.32,0,0,0,3,10.44c-.11,0-.25,0-.46-.28C36.36,88.55,17.72,55,26.48,41.36l.05-.08a9,9,0,0,1,5.2-4.18c3.44-1.09,7.64-.35,12.52,2.19ZM71.61,9l7-7a1.94,1.94,0,0,1,2.73,0l.31.32A1.94,1.94,0,0,1,81.7,5l-7,7a1.94,1.94,0,0,1-2.73,0l-.32-.31a2,2,0,0,1-.56-1.37A1.92,1.92,0,0,1,71.61,9ZM54.68,25.09a17.66,17.66,0,0,1,2.45-1.63q-1.52,1.53-3,3.08l-.37-.08-.9-.18A11,11,0,0,0,54.68,25.09Zm17.94,58,0,.07c0,.09-3.41,9.08-8.26,13.37l-.07.07s-2.17,2.49-3.87,1.92a4.39,4.39,0,0,1-2.65-4.41,88.42,88.42,0,0,1,.35-10,6.43,6.43,0,0,0-1.33-4.71c-1.32-1.6-3.46-2.48-6.33-2.6h-.52a8.89,8.89,0,0,0-5.71,1.91A7,7,0,0,0,42,83.91V84c0,.06.48,6.38.46,8.45,0,.06.36,5.49-2.22,5.87l-.15,0-.13.08s-1.81,1.07-4.58-2.21A48.14,48.14,0,0,1,26.67,81l0-.08c-.11-.21-10.34-20.73-9.37-39.73,0-.17.65-17,17.84-19.34a14.7,14.7,0,0,1,10.15,3.19l0,0a15.58,15.58,0,0,0,2,1.18,17.19,17.19,0,0,0-2.38.57,14.73,14.73,0,0,0-4.52,2.25A39.37,39.37,0,0,1,45.2,27.9a26.83,26.83,0,0,1,4.8-.47,21.52,21.52,0,0,1,3.21.17A93.86,93.86,0,0,0,45,38.13c-5.27-2.77-9.88-3.56-13.71-2.33a10.44,10.44,0,0,0-6,4.84C16,55.21,35.13,89.19,36,90.63l0,.08a1.9,1.9,0,0,0,1.54.87,2,2,0,0,0,.52-.08c1-.3,1.22-1.53,1.16-2.16a84.73,84.73,0,0,1,.11-8.49v-.07A8.71,8.71,0,0,1,47.63,72l2,0,2.66,0a8.71,8.71,0,0,1,8.37,8.74v.07s.24,2.81.1,8.44c-.06.68.12,1.91,1.16,2.21A1.81,1.81,0,0,0,64,90.71l0-.08c.82-1.44,20-35.42,10.64-50a10.41,10.41,0,0,0-6-4.84c-4-1.28-8.86-.37-14.36,2.68a12.46,12.46,0,0,1-4.35.85,11.91,11.91,0,0,1-3.56-.53,88.9,88.9,0,0,1,8.29-10.75l.16-.17a33.75,33.75,0,0,1,4.58,1.33,13.91,13.91,0,0,0-3.81-2.16c1-1.06,2-2.11,3-3.11.64-.62,1.26-1.27,1.91-1.88a9.75,9.75,0,0,1,3.63-.29c.73,0,17.89,1.21,18.54,21C82.77,43,83.9,60.72,72.62,83.11Z"/></svg>