<svg id="Layer_1" data-name="Layer 1" xmlns="http://www.w3.org/2000/svg" viewBox="0 0 100 100"><defs><style>.cls-1{fill:#54b45d;}</style></defs><title>Artboard 2</title><path class="cls-1" d="M75.45,30.66C74.69,7.46,53.81,6.08,53.64,6.07c-6-.7-11.36,3.82-11.58,4-.67.55-2.75,2-4.22,1.92-1.77-.08-4.27-1.8-4.5-2A17.48,17.48,0,0,0,21.05,6.21C.83,9,.08,28.79.07,29c-1.08,21,10,43.64,10.52,44.7a54.81,54.81,0,0,0,9.88,17.25C23.94,95,26.59,94,27.2,93.69c4-.73,3.53-7.65,3.5-7.89,0-2.23-.46-8.79-.51-9.4a6.44,6.44,0,0,1,2-4.71c2.31-2,5.86-1.78,5.92-1.78,2.81.12,4.84.92,6,2.38a5.84,5.84,0,0,1,1.19,4.21A104.33,104.33,0,0,0,45,87.72a6.23,6.23,0,0,0,3.88,6.17,3,3,0,0,0,1,.17c2.3,0,4.42-2.34,4.71-2.67,5.53-4.9,9.23-14.58,9.5-15.32C76.74,50.91,75.46,30.83,75.45,30.66ZM63,75.56l0,.06c0,.1-3.8,10.11-9.21,14.9l-.06.06c-.68.8-2.8,2.74-4.47,2.18a5,5,0,0,1-3.06-5,102.67,102.67,0,0,1,.4-11.08,7,7,0,0,0-1.44-5.1,6.35,6.35,0,0,0-1.36-1.22l.74.22a33.49,33.49,0,0,1,6.28,3,20.45,20.45,0,0,0-6-3.88,17.85,17.85,0,0,0-7-1.45,19.9,19.9,0,0,0-3.61.36,18.54,18.54,0,0,0-3.44,1.07,17.83,17.83,0,0,0-5.93,3.9,26.52,26.52,0,0,1,6.25-3c.38-.12.77-.23,1.15-.33a7.16,7.16,0,0,0-.79.6A7.56,7.56,0,0,0,29,76.38v.07c0,.08.55,7.1.52,9.38,0,.07.41,6.25-2.6,6.7l-.13,0-.11.07s-2.08,1.33-5.3-2.48a53.35,53.35,0,0,1-9.66-16.9l0-.07C11.56,72.94.18,50.13,1.27,29c0-.19.72-19,19.93-21.62A16.52,16.52,0,0,1,32.59,11l0,0a16.41,16.41,0,0,0,2.88,1.61,12,12,0,0,0-2.63.83,12.62,12.62,0,0,0-4,2.78,23.66,23.66,0,0,1,4.37-1.91,15.83,15.83,0,0,1,4.55-.76,13.48,13.48,0,0,1,2.29.14l1.13.24a3.56,3.56,0,0,1,.56.15l.55.19a16.16,16.16,0,0,1,2.16.9,8.12,8.12,0,0,1,1,.58c.35.21.7.41,1.06.6-.28-.29-.56-.58-.86-.86a6.51,6.51,0,0,0-.93-.81l-1-.7a6.5,6.5,0,0,0-1.11-.58,11,11,0,0,0-2.34-.81A13.1,13.1,0,0,0,42.83,11c.05-.05,5.2-4.38,10.7-3.73.82,0,20,1.34,20.72,23.45C74.26,30.92,75.52,50.68,63,75.56Z"/><path class="cls-1" d="M100,66.88a.6.6,0,0,0-.6-.58h-.07c-1.13-.08-10.54-1.06-13.06-13.24a.6.6,0,0,0-.59-.48.59.59,0,0,0-.58.48C82.58,65.25,73.17,66.23,72,66.31H72a.57.57,0,0,0-.44.18.6.6,0,0,0,.41,1H72c1.13.07,10.54,1,13.06,13.24a.59.59,0,0,0,.58.48.6.6,0,0,0,.59-.48C88.79,68.56,98.2,67.58,99.33,67.51h0a.58.58,0,0,0,.62-.58v-.05ZM85.68,78.21C83.36,70.73,78.24,67.94,75,66.91c3.28-1,8.4-3.82,10.72-11.31C88,63.09,93.12,65.87,96.4,66.91,93.12,67.94,88,70.73,85.68,78.21Z"/><path class="cls-1" d="M65.12,49h0c-.59,0-5-.56-6.23-6.37a.6.6,0,0,0-.59-.48.61.61,0,0,0-.59.48C56.48,48.45,52,49,51.46,49h0a.54.54,0,0,0-.43.17.59.59,0,0,0-.19.43A.57.57,0,0,0,51,50a.58.58,0,0,0,.41.17h0c.59,0,5,.56,6.22,6.37a.61.61,0,0,0,.59.48.6.6,0,0,0,.59-.48c1.2-5.81,5.64-6.33,6.23-6.37h0a.58.58,0,0,0,.6-.45.88.88,0,0,0,0-.17A.6.6,0,0,0,65.12,49Zm-6.85,5.34a8.28,8.28,0,0,0-4.5-4.74,8.28,8.28,0,0,0,4.5-4.74,8.31,8.31,0,0,0,4.5,4.74A8.31,8.31,0,0,0,58.27,54.35Z"/><path class="cls-1" d="M79.48,41.79h0c.54,0,5,.58,6.23,6.37a.59.59,0,0,0,.58.48.6.6,0,0,0,.59-.48c1.2-5.81,5.64-6.33,6.23-6.37h0a.58.58,0,0,0,.62-.58v-.05a.6.6,0,0,0-.6-.58h0c-.54-.05-5-.59-6.23-6.37a.6.6,0,0,0-.59-.48.59.59,0,0,0-.58.48c-1.2,5.81-5.65,6.32-6.23,6.37h0a.52.52,0,0,0-.44.16.62.62,0,0,0-.18.44.6.6,0,0,0,.59.6Zm6.85-5.35a8.33,8.33,0,0,0,4.5,4.75,8.28,8.28,0,0,0-4.5,4.74,8.24,8.24,0,0,0-4.49-4.74A8.29,8.29,0,0,0,86.33,36.44Z"/></svg>