<svg id="Layer_1" data-name="Layer 1" xmlns="http://www.w3.org/2000/svg" viewBox="0 0 100 100"><defs><style>.cls-1{fill:#dbdbdb;}.cls-2{fill:#476381;}</style></defs><title>Artboard 1</title><path class="cls-1" d="M86.87,30.94C86.12,8.16,65.72,7.08,65.72,7.08c-5.76-.68-11,3.85-11,3.85s-2.57,2.13-4.61,2-4.8-2.07-4.8-2.07A16.86,16.86,0,0,0,33.5,7.21C13.67,10,13.16,29.28,13.16,29.28c-1.1,21.37,10.41,44.15,10.41,44.15a53.23,53.23,0,0,0,9.72,17c3.56,4.22,6,2.56,6,2.56,3.63-.55,3.09-7.29,3.09-7.29,0-2.27-.51-9.32-.51-9.32.34-7.73,8.51-7,8.51-7,8.81.37,7.76,7.19,7.76,7.19a100.7,100.7,0,0,0-.4,11.12,5.54,5.54,0,0,0,3.45,5.55c2.4.81,5.08-2.34,5.08-2.34,5.56-4.91,9.32-15,9.32-15C88.29,50.65,86.87,30.94,86.87,30.94Z"/><path class="cls-2" d="M87.47,30.92C86.71,7.86,66,6.5,65.79,6.49c-6-.71-11.29,3.79-11.5,4-.67.55-2.73,2-4.2,1.9-1.76-.07-4.24-1.79-4.46-1.94A17.41,17.41,0,0,0,33.41,6.62C13.32,9.41,12.57,29.06,12.57,29.24,11.49,50.13,22.5,72.62,23,73.66a54,54,0,0,0,9.82,17.15c3.44,4.09,6.08,3.07,6.69,2.75,4-.73,3.5-7.61,3.47-7.85,0-2.21-.46-8.73-.5-9.34a6.37,6.37,0,0,1,2-4.68c2.3-2,5.82-1.77,5.88-1.76,2.79.12,4.82.91,6,2.36a5.83,5.83,0,0,1,1.18,4.18,103.17,103.17,0,0,0-.41,11.16A6.19,6.19,0,0,0,61,93.75a3,3,0,0,0,1,.17c2.29,0,4.4-2.32,4.68-2.65,5.49-4.88,9.17-14.49,9.45-15.23C88.75,51,87.48,31.09,87.47,30.92ZM75.09,75.54l0,.06c0,.1-3.78,10.05-9.16,14.8l-.05.06c-.68.79-2.79,2.73-4.44,2.17a5,5,0,0,1-3-5,104.71,104.71,0,0,1,.4-11,6.92,6.92,0,0,0-1.43-5.07A6.79,6.79,0,0,0,56,70.33l.73.22a32.18,32.18,0,0,1,6.24,3A20.4,20.4,0,0,0,57,69.68a17.82,17.82,0,0,0-7-1.44,19.59,19.59,0,0,0-3.58.37,18.29,18.29,0,0,0-3.42,1,17.77,17.77,0,0,0-5.89,3.88,26.19,26.19,0,0,1,6.21-3c.38-.13.77-.24,1.16-.35-.27.19-.54.39-.8.61a7.54,7.54,0,0,0-2.42,5.56v.08c0,.07.54,7,.5,9.32,0,.06.41,6.2-2.57,6.65l-.14,0-.1.07c-.09.05-2.12,1.26-5.27-2.47a53,53,0,0,1-9.6-16.79l0-.07C24,72.94,12.68,50.27,13.76,29.29c0-.19.71-18.84,19.8-21.48a16.4,16.4,0,0,1,11.32,3.55l0,0A16.41,16.41,0,0,0,47.79,13a12,12,0,0,0-2.63.83,12.41,12.41,0,0,0-4,2.75,24.71,24.71,0,0,1,4.34-1.89A15.68,15.68,0,0,1,50,13.92a12.31,12.31,0,0,1,2.27.14l1.12.24a2.21,2.21,0,0,1,.56.15l.54.18a14.38,14.38,0,0,1,2.15.9,8.12,8.12,0,0,1,1,.58c.34.2.69.4,1,.59-.28-.29-.56-.58-.85-.86A6.94,6.94,0,0,0,57,15l-1-.7a6.37,6.37,0,0,0-1.1-.57A11,11,0,0,0,52.54,13a12.94,12.94,0,0,0,2.51-1.58c.06-.05,5.18-4.36,10.64-3.71C65.89,7.68,85.55,9,86.28,31,86.29,31.17,87.53,50.83,75.09,75.54Z"/></svg>